<?xml version="1.0" encoding="UTF-8" standalone="no"?>
<!-- Created with Inkscape (http://www.inkscape.org/) -->

<svg
   width="71.108589mm"
   height="32.382515mm"
   viewBox="0 0 71.108587 32.382515"
   version="1.1"
   id="svg1"
   xml:space="preserve"
   sodipodi:docname="pz_logo_2_dark.svg"
   inkscape:version="1.3.2 (091e20ef0f, 2023-11-25)"
   xmlns:inkscape="http://www.inkscape.org/namespaces/inkscape"
   xmlns:sodipodi="http://sodipodi.sourceforge.net/DTD/sodipodi-0.dtd"
   xmlns:xlink="http://www.w3.org/1999/xlink"
   xmlns="http://www.w3.org/2000/svg"
   xmlns:svg="http://www.w3.org/2000/svg"><sodipodi:namedview
     id="namedview1"
     pagecolor="#ffffff"
     bordercolor="#000000"
     borderopacity="0.25"
     inkscape:showpageshadow="2"
     inkscape:pageopacity="0.0"
     inkscape:pagecheckerboard="0"
     inkscape:deskcolor="#d1d1d1"
     inkscape:document-units="mm"
     showguides="true"
     inkscape:zoom="3.8026935"
     inkscape:cx="134.37844"
     inkscape:cy="61.140874"
     inkscape:window-width="1920"
     inkscape:window-height="1080"
     inkscape:window-x="0"
     inkscape:window-y="0"
     inkscape:window-maximized="1"
     inkscape:current-layer="svg1" /><defs
     id="defs1"><linearGradient
       id="linearGradient17"><stop
         style="stop-color:#d61010;stop-opacity:1;"
         offset="0"
         id="stop17" /><stop
         style="stop-color:#6b0808;stop-opacity:1;"
         offset="1"
         id="stop18" /></linearGradient><linearGradient
       xlink:href="#linearGradient17"
       id="linearGradient18"
       x1="82.345284"
       y1="150.45314"
       x2="127.98591"
       y2="150.45314"
       gradientUnits="userSpaceOnUse" /><linearGradient
       xlink:href="#linearGradient17"
       id="linearGradient19"
       gradientUnits="userSpaceOnUse"
       x1="82.345284"
       y1="150.45314"
       x2="127.98591"
       y2="150.45314" /><linearGradient
       xlink:href="#linearGradient17"
       id="linearGradient20"
       gradientUnits="userSpaceOnUse"
       x1="82.345284"
       y1="150.45314"
       x2="127.98591"
       y2="150.45314" /></defs><g
     id="g1"><g
       id="g17"
       style="fill:url(#linearGradient18)"
       transform="matrix(0.6242145,0,0,0.6242145,-51.401118,-80.875526)"><path
         style="fill:url(#linearGradient19)"
         d="m 107.97889,148.28078 c -2.34537,-0.45672 -4.45873,-0.99381 -4.69636,-1.19353 -0.53139,-0.44662 -0.56226,-1.44838 -0.0575,-1.86726 0.46926,-0.38945 9.02776,1.18115 9.74582,1.78849 0.53412,0.45175 0.60753,1.38218 0.14552,1.84419 -0.38671,0.38671 0.0147,0.43139 -5.13744,-0.57189 z"
         id="path8" /><path
         style="opacity:1;mix-blend-mode:normal;fill:url(#linearGradient20)"
         d="m 86.578613,170.80718 c -1.650153,-0.83483 -3.328899,-2.31766 -3.802097,-3.35838 -0.376951,-0.82904 -0.431236,-2.36395 -0.431236,-12.19321 0,-8.53523 0.08263,-11.47779 0.342917,-12.21174 0.490627,-1.38345 1.69794,-2.44607 4.838767,-4.25884 10.982724,-6.33882 15.088566,-8.63358 15.964926,-8.92281 2.2007,-0.72629 2.97309,-0.42863 11.31962,4.36224 4.26274,2.4468 8.28622,4.74785 8.94106,5.11347 1.98704,1.10939 3.10574,2.11378 3.68335,3.30695 0.53071,1.0963 0.54999,1.53374 0.54999,12.47843 0,10.93719 -0.0196,11.3828 -0.54886,12.47609 -0.46311,0.95667 -2.67593,3.00203 -3.24781,3.00203 -0.0846,0 -0.18775,-4.4946 -0.22913,-9.98801 l -0.0752,-9.98802 -0.68949,-1.45521 c -0.76914,-1.6233 -2.12587,-3.17479 -3.29822,-3.77166 -1.4095,-0.71761 -23.434404,-5.48876 -25.337589,-5.48876 -2.585529,0 -4.87461,1.58741 -6.104576,4.23334 -0.531598,1.14358 -0.558692,1.70442 -0.685757,14.19507 l -0.132292,13.00444 z"
         id="path4" /></g><path
       style="fill:#6e5387;fill-opacity:1;stroke-width:0.624214"
       d="m 11.108977,30.689651 -2.9293516,-1.687589 -0.00218,-8.031168 c -0.00187,-6.859831 0.033164,-8.060501 0.240164,-8.232297 0.3594958,-0.298356 14.1012326,1.824148 14.3929476,2.22309 0.151465,0.207145 0.194798,1.799935 0.173968,6.395414 l -0.02772,6.119568 -4.266032,2.455554 c -2.346316,1.350557 -4.352966,2.453182 -4.459232,2.450285 -0.10626,-0.0031 -1.511404,-0.764681 -3.122552,-1.692857 z"
       id="path1" /><path
       style="fill:#f3f4f6;fill-opacity:1;stroke-width:0.624214"
       d="m 12.021235,18.82349 0.3379,-0.269174 -0.357794,-0.113557 c -0.219461,-0.06966 -0.360346,-0.252932 -0.364404,-0.474035 -0.0062,-0.330765 -0.0269,-0.323044 -0.253006,0.09371 -0.135524,0.249798 -0.374087,0.45921 -0.530149,0.465358 -0.221857,0.0087 -0.203486,0.04994 0.08422,0.188775 0.202386,0.09768 0.418408,0.334192 0.480056,0.525583 0.08393,0.260565 0.131328,0.285746 0.188681,0.100248 0.04213,-0.136253 0.22865,-0.36886 0.414497,-0.516905 z"
       id="path3" /><path
       style="fill:#f3f4f6;fill-opacity:1;stroke-width:0.624214"
       d="m 14.451215,4.896952 c 0,-0.5837279 0.404859,-1.0903654 1.018143,-1.2741092 0.789438,-0.2365211 0.805649,-0.4205271 0.04956,-0.5623736 -0.583534,-0.1094747 -1.067688,-0.699451 -1.067688,-1.3010627 0,-0.4809823 -0.277756,-0.2568518 -0.467811,0.3774875 -0.183744,0.6132845 -0.690381,1.0181437 -1.274109,1.0181437 -0.474004,0 -0.227096,0.2818828 0.415564,0.474428 0.559627,0.1676703 0.684258,0.292301 0.851928,0.851928 0.192546,0.64266 0.474428,0.8895681 0.474428,0.4155583 z"
       id="path7" /><path
       style="fill:#f3f4f6;fill-opacity:1;stroke-width:0.624214"
       d="m 20.995055,7.6142701 c 0.125174,0 0.227589,-0.074325 0.227589,-0.1651609 0,-0.090836 -0.11332,-0.1651547 -0.251821,-0.1651547 -0.138507,0 -0.331964,-0.2043803 -0.429903,-0.4541785 -0.178044,-0.4540911 -0.178107,-0.4541098 -0.322338,-0.078695 -0.07935,0.2065151 -0.313237,0.4404021 -0.519752,0.5197522 -0.375415,0.144231 -0.375396,0.1442934 0.07869,0.3223381 0.250597,0.098258 0.458061,0.3094606 0.462842,0.4711883 0.0074,0.2496734 0.04707,0.238038 0.267876,-0.078489 0.14257,-0.2043803 0.361632,-0.3716011 0.486812,-0.3716011 z"
       id="path6" /><path
       style="fill:#f3f4f6;fill-opacity:1;stroke-width:0.624214"
       d="M 2.195738,14.839434 C 2.0155634,14.771064 1.825904,14.553582 1.7742721,14.356142 l -0.093877,-0.358985 -0.1343965,0.363311 c -0.073918,0.199818 -0.3033664,0.42823 -0.5098846,0.507574 -0.37541261,0.144231 -0.37539638,0.1443 0.078693,0.322338 0.2497994,0.09795 0.4541809,0.282838 0.4541809,0.410883 0,0.153601 0.1623295,0.08476 0.4771696,-0.202358 0.4516897,-0.411925 0.4596771,-0.4418 0.1495805,-0.559471 z"
       id="path5" /><path
       style="fill:#f3f4f6;fill-opacity:1;stroke-width:0.624214"
       d="m 17.643279,21.6712 c 0.07554,-0.377737 0.234031,-0.530008 0.723246,-0.694888 l 0.626499,-0.211153 -0.557673,-0.164225 c -0.410327,-0.120829 -0.623709,-0.319966 -0.807602,-0.75367 L 17.377826,19.257818 17.18048,19.8337 c -0.149393,0.435939 -0.328618,0.613534 -0.73754,0.730811 l -0.540196,0.154924 0.554203,0.260129 c 0.376102,0.176534 0.604108,0.429516 0.709495,0.787216 0.181215,0.615044 0.34112,0.582991 0.476837,-0.09558 z"
       id="path2" /></g><path
     style="font-weight:500;font-size:20.3621px;line-height:0;font-family:'Yanone Kaffeesatz';-inkscape-font-specification:'Yanone Kaffeesatz Medium';word-spacing:0px;fill:#f3f4f6;fill-opacity:1;stroke-width:0.238618"
     d="m 35.25091,9.9614372 q -0.325794,0 -0.346156,-0.1018105 -0.02036,-0.1018105 -0.02036,-0.3665178 v -7.696874 q 0,-0.040724 0,-0.203621 0.02036,-0.1832589 0.264708,-0.1832589 h 1.852951 q 1.282812,0 2.13802,0.407242 0.855209,0.3868799 1.262451,1.2828123 0.427604,0.8959325 0.427604,2.3823658 0,1.3031745 -0.325794,2.1787448 -0.305431,0.8552082 -0.834846,1.3642607 -0.529415,0.5090525 -1.201364,0.7330356 -0.671949,0.203621 -1.425347,0.203621 z M 34.660409,15.662826 V 1.7758728 q 0,-0.203621 0.06109,-0.2850694 0.08145,-0.081448 0.305432,-0.081448 h 1.119915 q 0.28507,0 0.325794,0.1832589 0.04072,0.1832589 0.04072,0.1832589 V 15.296308 q 0,0.183259 -0.08145,0.264707 -0.08145,0.06109 -0.468328,0.08145 -0.366518,0.02036 -1.303175,0.02036 z m 1.832589,-7.4118052 h 0.753398 q 0.48869,0 0.814484,-0.2647073 0.346156,-0.2850694 0.509052,-0.9366566 0.183259,-0.6515873 0.183259,-1.7715028 0,-0.7126735 -0.142534,-1.2013639 Q 38.488484,3.5677377 38.183053,3.3030304 37.897983,3.038323 37.368569,3.038323 H 36.492998 Z M 41.97041,15.662826 V 1.5315276 q 0,-0.4276041 0.142535,-0.59050088 0.162897,-0.1832589 0.549777,-0.203621 0.407242,-0.0407242 1.16064,-0.0407242 V 6.0519139 q 0.427604,-0.3868799 1.018105,-0.5701388 0.590501,-0.203621 1.160639,-0.203621 0.855209,0 1.282813,0.3054315 0.427604,0.3054315 0.590501,0.8959324 0.162896,0.590501 0.162896,1.4660713 v 7.3507187 q 0,0.183259 -0.10181,0.264707 -0.101811,0.06109 -0.509053,0.08145 -0.386879,0.02036 -1.303174,0.02036 V 8.495366 q 0,-0.610863 -0.183259,-1.0588292 -0.162897,-0.4479662 -0.834846,-0.4479662 -0.285069,0 -0.631225,0.1018105 -0.325794,0.1018105 -0.651587,0.3665178 v 7.8394091 q 0,0.183259 -0.08145,0.264707 -0.06109,0.06109 -0.468328,0.08145 -0.38688,0.02036 -1.303175,0.02036 z m 10.690119,0.203621 q -0.794122,0 -1.404985,-0.203621 -0.590501,-0.183259 -0.997743,-0.733036 -0.407242,-0.549777 -0.610863,-1.588244 -0.183258,-1.058829 -0.183258,-2.769245 0,-2.7896085 0.895932,-4.0316967 0.895932,-1.2624502 2.484176,-1.2624502 1.079192,0 1.771503,0.4479662 0.712674,0.4276041 1.058829,1.5678818 0.346156,1.1402776 0.346156,3.2172119 0,2.871057 -0.855208,4.113145 -0.855209,1.242088 -2.504539,1.242088 z m 0.06109,-1.567882 q 0.366517,0 0.651587,-0.264707 0.285069,-0.28507 0.447966,-1.099554 0.162897,-0.834846 0.162897,-2.402728 0,-1.5678817 -0.122173,-2.3620036 -0.122172,-0.7941219 -0.38688,-1.0588292 -0.264707,-0.2647073 -0.692311,-0.2647073 -0.38688,0 -0.692311,0.2850694 -0.28507,0.2850694 -0.447967,1.0995534 -0.162896,0.814484 -0.162896,2.3620043 0,1.221726 0.08145,1.975124 0.08145,0.753397 0.223983,1.119915 0.162897,0.366518 0.38688,0.48869 0.244345,0.122173 0.549777,0.122173 z m 4.622202,1.364261 V 5.9704655 q 0.38688,-0.1832589 0.916295,-0.3257936 0.549777,-0.1628968 1.16064,-0.2647073 0.610863,-0.1018105 1.119915,-0.1018105 1.079191,0 1.690054,0.2647073 0.631226,0.2443452 0.916295,0.8348461 0.285069,0.590501 0.285069,1.5882439 v 7.3303566 q 0,0.183259 -0.10181,0.264707 -0.08145,0.06109 -0.488691,0.08145 -0.386879,0.02036 -1.323536,0.02036 V 8.5360902 q 0,-0.9162945 -0.203621,-1.2828123 -0.183259,-0.3665178 -0.834846,-0.3665178 -0.28507,0 -0.651587,0.081448 -0.346156,0.081448 -0.631226,0.2443452 v 8.0837547 q 0,0.183259 -0.08145,0.264707 -0.08145,0.06109 -0.468328,0.08145 -0.38688,0.02036 -1.303175,0.02036 z m 10.791907,0.203621 q -0.712674,0 -1.303175,-0.203621 -0.5905,-0.203621 -1.018105,-0.712674 -0.427604,-0.509052 -0.671949,-1.445709 -0.244345,-0.936656 -0.244345,-2.42309 0,-1.8936756 0.305431,-3.0339532 0.305432,-1.1606397 0.814484,-1.7511407 0.509053,-0.5905009 1.16064,-0.7941219 0.651587,-0.2239831 1.323537,-0.2239831 1.26245,0 1.934399,0.814484 0.67195,0.794122 0.67195,2.4638142 0,0.7126735 -0.06109,1.4457097 -0.06109,0.733035 -0.203621,1.282812 -0.651587,0.142535 -1.486433,0.203621 -0.834846,0.06109 -1.608606,0.101811 -0.753398,0.02036 -1.242088,0.02036 -0.488691,0 -0.488691,0 l 0.04072,-1.506796 q 0,0 0.346155,0.02036 0.346156,0 0.875571,0 0.529414,0 1.038467,-0.04072 0.529414,-0.06109 0.87557,-0.162897 0.06109,-0.2647073 0.08145,-0.5701388 0.02036,-0.3257936 0.02036,-0.610863 0,-1.0588292 -0.223983,-1.4457091 -0.203622,-0.3868799 -0.794122,-0.3868799 -0.305432,0 -0.590501,0.203621 -0.264708,0.1832589 -0.468329,0.6515872 -0.183259,0.4683283 -0.305431,1.2624502 -0.101811,0.7941219 -0.101811,1.9751244 0,0.87557 0.101811,1.466071 0.10181,0.590501 0.285069,0.936657 0.203621,0.346155 0.529415,0.509052 0.346156,0.142535 0.814484,0.142535 0.590501,0 1.16064,-0.162897 0.590501,-0.162897 1.099553,-0.447966 0.101811,0.264707 0.122173,0.631225 0.04072,0.346156 0.04072,0.631225 0,0.346156 -0.38688,0.610863 -0.38688,0.264707 -1.038467,0.407242 -0.631225,0.142535 -1.404985,0.142535 z"
     id="text1-1"
     aria-label="Phone" /><path
     d="m 34.925118,31.382045 q -0.101811,-0.122173 -0.183259,-0.285069 -0.08145,-0.183259 -0.08145,-0.427604 0,-0.203622 0.04073,-0.38688 0.04072,-0.203621 0.122172,-0.427605 l 4.662917,-11.076982 h -3.604091 q -0.223984,0 -0.488691,0.02036 -0.244345,0.02036 -0.407242,0.06109 v -1.364261 q 0,-0.366517 0.366518,-0.366517 h 6.088268 q 0.10181,0.122172 0.142535,0.264707 0.04072,0.122173 0.04072,0.325794 0,0.386879 -0.183259,0.834846 l -4.744365,11.178791 h 3.68554 q 0.366518,0 0.671949,-0.02036 0.325794,-0.04072 0.590501,-0.142535 v 1.445709 q 0,0.162897 -0.08145,0.264708 -0.06109,0.10181 -0.28507,0.10181 z m 10.466109,0.203621 q -0.794121,0 -1.404984,-0.203621 -0.590501,-0.183259 -0.997743,-0.733036 -0.407242,-0.549776 -0.610863,-1.588243 -0.183259,-1.05883 -0.183259,-2.769246 0,-2.789608 0.895932,-4.031696 0.895933,-1.26245 2.484176,-1.26245 1.079192,0 1.771503,0.447966 0.712674,0.427604 1.058829,1.567882 0.346156,1.140277 0.346156,3.217212 0,2.871056 -0.855208,4.113144 -0.855208,1.242088 -2.504539,1.242088 z m 0.06109,-1.567882 q 0.366518,0 0.651587,-0.264707 0.285069,-0.285069 0.447966,-1.099553 0.162897,-0.834847 0.162897,-2.402728 0,-1.567882 -0.122173,-2.362004 -0.122172,-0.794122 -0.38688,-1.058829 -0.264707,-0.264708 -0.692311,-0.264708 -0.38688,0 -0.692311,0.28507 -0.28507,0.285069 -0.447967,1.099553 -0.162896,0.814484 -0.162896,2.362004 0,1.221726 0.08145,1.975124 0.08145,0.753397 0.223983,1.119915 0.162897,0.366518 0.38688,0.488691 0.244345,0.122172 0.549777,0.122172 z m 4.622202,1.364261 v -9.69236 q 0.38688,-0.183259 0.916294,-0.325793 0.549777,-0.162897 1.16064,-0.264708 0.610863,-0.10181 1.119916,-0.10181 1.079191,0 1.690054,0.264707 0.631225,0.244345 0.916295,0.834846 0.285069,0.590501 0.285069,1.588244 v 7.330356 q 0,0.183259 -0.10181,0.264708 -0.08145,0.06109 -0.488691,0.08145 -0.38688,0.02036 -1.323536,0.02036 V 24.25531 q 0,-0.916295 -0.203621,-1.282813 -0.183259,-0.366517 -0.834847,-0.366517 -0.285069,0 -0.651587,0.08145 -0.346156,0.08145 -0.631225,0.244345 v 8.083754 q 0,0.183259 -0.08145,0.264708 -0.08145,0.06109 -0.468329,0.08145 -0.38688,0.02036 -1.303174,0.02036 z m 10.791907,0.203621 q -0.712674,0 -1.303175,-0.203621 -0.590501,-0.203621 -1.018105,-0.712673 -0.427604,-0.509053 -0.671949,-1.44571 -0.244345,-0.936656 -0.244345,-2.42309 0,-1.893675 0.305431,-3.033953 0.305432,-1.160639 0.814484,-1.75114 0.509053,-0.590501 1.16064,-0.794122 0.651587,-0.223983 1.323536,-0.223983 1.262451,0 1.9344,0.814484 0.671949,0.794122 0.671949,2.463814 0,0.712673 -0.06109,1.445709 -0.06109,0.733036 -0.203621,1.282812 -0.651587,0.142535 -1.486433,0.203621 -0.834847,0.06109 -1.608606,0.101811 -0.753398,0.02036 -1.242089,0.02036 -0.48869,0 -0.48869,0 l 0.04072,-1.506795 q 0,0 0.346156,0.02036 0.346156,0 0.87557,0 0.529415,0 1.038467,-0.04072 0.529415,-0.06109 0.875571,-0.162896 0.06109,-0.264708 0.08145,-0.570139 0.02036,-0.325794 0.02036,-0.610863 0,-1.058829 -0.223983,-1.445709 -0.203621,-0.38688 -0.794122,-0.38688 -0.305431,0 -0.590501,0.203621 -0.264707,0.183259 -0.468328,0.651587 -0.183259,0.468328 -0.305432,1.26245 -0.10181,0.794122 -0.10181,1.975124 0,0.87557 0.10181,1.466071 0.101811,0.590501 0.28507,0.936657 0.203621,0.346156 0.529414,0.509052 0.346156,0.142535 0.814485,0.142535 0.5905,0 1.160639,-0.162897 0.590501,-0.162897 1.099554,-0.447966 0.10181,0.264707 0.122172,0.631225 0.04072,0.346156 0.04072,0.631225 0,0.346156 -0.386879,0.610863 -0.38688,0.264708 -1.038468,0.407242 -0.631225,0.142535 -1.404984,0.142535 z"
     id="text2"
     style="font-weight:500;font-size:20.3621px;line-height:0;font-family:'Yanone Kaffeesatz';-inkscape-font-specification:'Yanone Kaffeesatz Medium';word-spacing:0px;fill:#f3f4f6;fill-opacity:1;stroke-width:0.238618"
     aria-label="Zone"
     inkscape:export-filename="text2.svg"
     inkscape:export-xdpi="96"
     inkscape:export-ydpi="96" /></svg>
