<?xml version="1.0" encoding="UTF-8" standalone="no"?>
<!-- Created with Inkscape (http://www.inkscape.org/) -->

<svg
   width="73.693939mm"
   height="46.826511mm"
   viewBox="0 0 73.693939 46.826511"
   version="1.1"
   id="svg1"
   xml:space="preserve"
   sodipodi:docname="pz_logo_hor_1_row.svg"
   xmlns:inkscape="http://www.inkscape.org/namespaces/inkscape"
   xmlns:sodipodi="http://sodipodi.sourceforge.net/DTD/sodipodi-0.dtd"
   xmlns:xlink="http://www.w3.org/1999/xlink"
   xmlns="http://www.w3.org/2000/svg"
   xmlns:svg="http://www.w3.org/2000/svg"><sodipodi:namedview
     id="namedview1"
     pagecolor="#ffffff"
     bordercolor="#000000"
     borderopacity="0.25"
     inkscape:showpageshadow="2"
     inkscape:pageopacity="0.0"
     inkscape:pagecheckerboard="0"
     inkscape:deskcolor="#d1d1d1"
     inkscape:document-units="mm"
     showguides="true" /><defs
     id="defs1"><linearGradient
       id="linearGradient17"><stop
         style="stop-color:#d61010;stop-opacity:1;"
         offset="0"
         id="stop17" /><stop
         style="stop-color:#6b0808;stop-opacity:1;"
         offset="1"
         id="stop18" /></linearGradient><linearGradient
       xlink:href="#linearGradient17"
       id="linearGradient19"
       gradientUnits="userSpaceOnUse"
       x1="82.345284"
       y1="150.45314"
       x2="127.98591"
       y2="150.45314"
       gradientTransform="matrix(0.6242145,0,0,0.6242145,-51.401118,-80.875531)" /><linearGradient
       xlink:href="#linearGradient17"
       id="linearGradient20"
       gradientUnits="userSpaceOnUse"
       x1="82.345284"
       y1="150.45314"
       x2="127.98591"
       y2="150.45314"
       gradientTransform="matrix(0.6242145,0,0,0.6242145,-51.401118,-80.875531)" /></defs><g
     id="g2"
     transform="translate(22.602202)"><path
       style="fill:url(#linearGradient19);stroke-width:0.624214"
       d="m 16.000871,11.683482 c -1.464014,-0.285091 -2.783204,-0.620351 -2.931536,-0.745019 -0.331702,-0.278786 -0.350971,-0.9041 -0.03589,-1.1655706 0.292919,-0.2431003 5.635259,0.7372906 6.083483,1.1164016 0.333405,0.281989 0.379229,0.862777 0.09084,1.15117 -0.24139,0.24139 0.0092,0.26928 -3.206864,-0.356982 z"
       id="path8" /><path
       style="mix-blend-mode:normal;fill:url(#linearGradient20);stroke-width:0.624214"
       d="M 2.6425076,25.744787 C 1.6124582,25.223674 0.5645606,24.29807 0.26918355,23.648438 0.03388527,23.130939 -2.1744e-7,22.172826 -2.1744e-7,16.037259 -2.1744e-7,10.709445 0.05157863,8.8726565 0.21405355,8.4145143 0.52031003,7.5509448 1.2739323,6.8876419 3.2344821,5.7560846 10.090058,1.7993013 12.652984,0.3668788 13.20002,0.18633724 c 1.373709,-0.45336075 1.855846,-0.26755706 7.065871,2.72297346 2.660864,1.527328 5.172379,2.9636768 5.58114,3.1919021 1.240339,0.6924973 1.938648,1.3194521 2.2992,2.0642462 0.331277,0.6843263 0.343312,0.9573827 0.343312,7.789217 0,6.827152 -0.01224,7.105309 -0.342607,7.787756 -0.28908,0.597167 -1.670354,1.873911 -2.02733,1.873911 -0.05281,0 -0.117196,-2.805595 -0.143026,-6.234661 L 25.92964,13.147015 25.49925,12.238652 C 25.019141,11.225365 24.172251,10.256902 23.440453,9.8843272 22.560622,9.4363847 8.812358,6.4581636 7.6243623,6.4581636 6.0104376,6.4581636 4.5815601,7.449048 3.8137974,9.1006759 3.4819663,9.8145151 3.4650538,10.1646 3.385738,17.961444 l -0.082579,8.11756 z"
       id="path4" /><path
       style="fill:#161f45;fill-opacity:1;stroke-width:0.624214"
       d="m 11.108977,30.689646 -2.9293516,-1.687589 -0.00218,-8.031168 c -0.00187,-6.859831 0.033164,-8.060501 0.240164,-8.232297 0.3594958,-0.298356 14.1012326,1.824148 14.3929476,2.22309 0.151465,0.207145 0.194798,1.799935 0.173968,6.395414 l -0.02772,6.119568 -4.266032,2.455554 c -2.346316,1.350557 -4.352966,2.453182 -4.459232,2.450285 -0.10626,-0.0031 -1.511404,-0.764681 -3.122552,-1.692857 z"
       id="path1" /><path
       style="fill:#f3f4f6;fill-opacity:1;stroke-width:0.624214"
       d="m 12.021235,18.823485 0.3379,-0.269174 -0.357794,-0.113557 c -0.219461,-0.06966 -0.360346,-0.252932 -0.364404,-0.474035 -0.0062,-0.330765 -0.0269,-0.323044 -0.253006,0.09371 -0.135524,0.249798 -0.374087,0.45921 -0.530149,0.465358 -0.221857,0.0087 -0.203486,0.04994 0.08422,0.188775 0.202386,0.09768 0.418408,0.334192 0.480056,0.525583 0.08393,0.260565 0.131328,0.285746 0.188681,0.100248 0.04213,-0.136253 0.22865,-0.36886 0.414497,-0.516905 z"
       id="path3" /><path
       style="fill:#f3f4f6;fill-opacity:1;stroke-width:0.624214"
       d="m 14.451215,4.896947 c 0,-0.5837279 0.404859,-1.0903654 1.018143,-1.2741092 0.789438,-0.2365211 0.805649,-0.4205271 0.04956,-0.5623736 -0.583534,-0.1094747 -1.067688,-0.699451 -1.067688,-1.3010627 0,-0.4809823 -0.277756,-0.2568518 -0.467811,0.3774875 -0.183744,0.6132845 -0.690381,1.0181437 -1.274109,1.0181437 -0.474004,0 -0.227096,0.2818828 0.415564,0.474428 0.559627,0.1676703 0.684258,0.292301 0.851928,0.851928 0.192546,0.64266 0.474428,0.8895681 0.474428,0.4155583 z"
       id="path7" /><path
       style="fill:#f3f4f6;fill-opacity:1;stroke-width:0.624214"
       d="m 20.995055,7.6142651 c 0.125174,0 0.227589,-0.074325 0.227589,-0.1651609 0,-0.090836 -0.11332,-0.1651547 -0.251821,-0.1651547 -0.138507,0 -0.331964,-0.2043803 -0.429903,-0.4541785 -0.178044,-0.4540911 -0.178107,-0.4541098 -0.322338,-0.078695 -0.07935,0.2065151 -0.313237,0.4404021 -0.519752,0.5197522 -0.375415,0.144231 -0.375396,0.1442934 0.07869,0.3223381 0.250597,0.098258 0.458061,0.3094606 0.462842,0.4711883 0.0074,0.2496734 0.04707,0.238038 0.267876,-0.078489 0.14257,-0.2043803 0.361632,-0.3716011 0.486812,-0.3716011 z"
       id="path6" /><path
       style="fill:#f3f4f6;fill-opacity:1;stroke-width:0.624214"
       d="M 2.195738,14.839429 C 2.0155634,14.771059 1.825904,14.553577 1.7742721,14.356137 l -0.093877,-0.358985 -0.1343965,0.363311 c -0.073918,0.199818 -0.3033664,0.42823 -0.5098846,0.507574 -0.37541261,0.144231 -0.37539638,0.1443 0.078693,0.322338 0.2497994,0.09795 0.4541809,0.282838 0.4541809,0.410883 0,0.153601 0.1623295,0.08476 0.4771696,-0.202358 0.4516897,-0.411925 0.4596771,-0.4418 0.1495805,-0.559471 z"
       id="path5" /><path
       style="fill:#f3f4f6;fill-opacity:1;stroke-width:0.624214"
       d="m 17.643279,21.671195 c 0.07554,-0.377737 0.234031,-0.530008 0.723246,-0.694888 l 0.626499,-0.211153 -0.557673,-0.164225 C 18.025024,20.4801 17.811642,20.280963 17.627749,19.847259 l -0.249923,-0.589446 -0.197346,0.575882 c -0.149393,0.435939 -0.328618,0.613534 -0.73754,0.730811 l -0.540196,0.154924 0.554203,0.260129 c 0.376102,0.176534 0.604108,0.429516 0.709495,0.787216 0.181215,0.615044 0.34112,0.582991 0.476837,-0.09558 z"
       id="path2" /></g><path
     style="font-weight:500;font-size:22.5778px;line-height:0;font-family:'Yanone Kaffeesatz';-inkscape-font-specification:'Yanone Kaffeesatz Medium';word-spacing:0px;fill:#161f45;stroke-width:0.264583"
     d="m 0.65475981,40.278948 q -0.361245,0 -0.383823,-0.112889 -0.02258,-0.112889 -0.02258,-0.406401 V 31.22525 q 0,-0.04516 0,-0.225778 0.02258,-0.2032 0.293512,-0.2032 H 2.5964478 q 1.422402,0 2.370669,0.451556 0.948268,0.428978 1.399824,1.422401 0.474134,0.993423 0.474134,2.641603 0,1.444979 -0.361245,2.415824 -0.338667,0.948268 -0.92569,1.512713 -0.587023,0.564445 -1.33209,0.812801 -0.745067,0.225778 -1.580446,0.225778 z M 2.8080102e-6,46.600732 v -15.39806 q 0,-0.225778 0.06773000199,-0.316089 0.09031,-0.09031 0.338667,-0.09031 H 1.6481788 q 0.316089,0 0.361245,0.2032 0.04516,0.2032 0.04516,0.2032 v 14.99166 q 0,0.2032 -0.09031,0.293511 -0.09031,0.06773 -0.519289,0.09031 -0.406401,0.02258 -1.4449799919898,0.02258 z M 2.0320048,38.382413 h 0.835379 q 0.541867,0 0.903112,-0.293512 0.383823,-0.316089 0.564445,-1.038579 0.2032,-0.722489 0.2032,-1.964268 0,-0.790223 -0.158044,-1.332091 -0.135467,-0.564445 -0.474134,-0.857956 -0.316089,-0.293511 -0.903112,-0.293511 h -0.970846 z m 6.073437,8.218319 V 30.931738 q 0,-0.474133 0.158044,-0.654756 0.180623,-0.2032 0.609601,-0.225778 0.451556,-0.04516 1.2869342,-0.04516 v 5.937961 q 0.474134,-0.428978 1.128891,-0.632178 0.654756,-0.225778 1.286934,-0.225778 0.948268,0 1.422402,0.338667 0.474133,0.338667 0.654756,0.993423 0.180622,0.654756 0.180622,1.625602 v 8.150586 q 0,0.2032 -0.112889,0.293511 -0.112889,0.06773 -0.564445,0.09031 -0.428978,0.02258 -1.444979,0.02258 v -7.947386 q 0,-0.677334 -0.2032,-1.174045 -0.180623,-0.496712 -0.92569,-0.496712 -0.316089,0 -0.699912,0.112889 -0.361245,0.112889 -0.72249,0.4064 v 8.692454 q 0,0.2032 -0.09031,0.293511 -0.06773,0.06773 -0.5192892,0.09031 -0.428978,0.02258 -1.444979,0.02258 z M 19.958804,46.82651 q -0.880534,0 -1.557868,-0.225778 -0.654757,-0.2032 -1.106313,-0.812801 -0.451556,-0.6096 -0.677334,-1.761068 -0.2032,-1.174046 -0.2032,-3.070581 0,-3.093159 0.993423,-4.470405 0.993424,-1.399823 2.754492,-1.399823 1.196623,0 1.964269,0.496711 0.790223,0.474134 1.174045,1.738491 0.383823,1.264357 0.383823,3.567292 0,3.18347 -0.948268,4.560716 -0.948267,1.377246 -2.777069,1.377246 z m 0.06773,-1.738491 q 0.406401,0 0.72249,-0.293511 0.316089,-0.316089 0.496711,-1.219201 0.180623,-0.92569 0.180623,-2.664181 0,-1.73849 -0.135467,-2.619025 -0.135467,-0.880534 -0.428978,-1.174045 -0.293512,-0.293512 -0.767645,-0.293512 -0.428979,0 -0.767646,0.31609 -0.316089,0.316089 -0.496711,1.219201 -0.180623,0.903112 -0.180623,2.619025 0,1.354668 0.09031,2.190046 0.09031,0.835379 0.248355,1.241779 0.180623,0.406401 0.428979,0.541868 0.270933,0.135466 0.6096,0.135466 z m 5.125168,1.512713 V 35.853699 q 0.428979,-0.2032 1.016001,-0.361245 0.609601,-0.180622 1.286935,-0.293511 0.677334,-0.112889 1.241779,-0.112889 1.196623,0 1.873957,0.293511 0.699912,0.270934 1.016002,0.92569 0.316089,0.654756 0.316089,1.761068 v 8.128009 q 0,0.2032 -0.112889,0.293511 -0.09031,0.06773 -0.541867,0.09031 -0.428979,0.02258 -1.467558,0.02258 v -7.90223 q 0,-1.016001 -0.225778,-1.422402 -0.2032,-0.4064 -0.925689,-0.4064 -0.31609,0 -0.72249,0.09031 -0.383823,0.09031 -0.699912,0.270934 v 8.963387 q 0,0.2032 -0.09031,0.293511 -0.09031,0.06773 -0.519289,0.09031 -0.428979,0.02258 -1.44498,0.02258 z m 11.966229,0.225778 q -0.790223,0 -1.44498,-0.225778 -0.654756,-0.225778 -1.12889,-0.790223 -0.474134,-0.564445 -0.745067,-1.603024 -0.270934,-1.038579 -0.270934,-2.686758 0,-2.099736 0.338667,-3.364092 0.338667,-1.286935 0.903112,-1.941691 0.564445,-0.654756 1.286935,-0.880534 0.72249,-0.248356 1.467557,-0.248356 1.399824,0 2.144891,0.903112 0.745067,0.880534 0.745067,2.731914 0,0.790223 -0.06773,1.603023 -0.06773,0.812801 -0.225778,1.422402 -0.72249,0.158045 -1.648179,0.225778 -0.92569,0.06773 -1.783647,0.112889 -0.835378,0.02258 -1.377245,0.02258 -0.541868,0 -0.541868,0 l 0.04516,-1.670758 q 0,0 0.383823,0.02258 0.383822,0 0.970845,0 0.587023,0 1.151468,-0.04516 0.587023,-0.06773 0.970845,-0.180623 0.06773,-0.293511 0.09031,-0.632178 0.02258,-0.361245 0.02258,-0.677334 0,-1.174046 -0.248356,-1.603024 -0.225778,-0.428978 -0.880534,-0.428978 -0.338667,0 -0.654756,0.225778 -0.293511,0.2032 -0.519289,0.722489 -0.203201,0.51929 -0.338667,1.399824 -0.112889,0.880534 -0.112889,2.190047 0,0.970845 0.112889,1.625601 0.112889,0.654757 0.316089,1.038579 0.225778,0.383823 0.587023,0.564445 0.383822,0.158045 0.903112,0.158045 0.654756,0 1.286934,-0.180623 0.654756,-0.180622 1.219201,-0.496711 0.112889,0.293511 0.135467,0.699912 0.04516,0.383822 0.04516,0.699911 0,0.383823 -0.428978,0.677334 -0.428979,0.293512 -1.151468,0.451556 -0.699912,0.158045 -1.557868,0.158045 z m 4.515547,-0.225778 q -0.112889,-0.135467 -0.203201,-0.316089 -0.09031,-0.2032 -0.09031,-0.474134 0,-0.225778 0.04516,-0.428978 0.04515,-0.225778 0.135467,-0.474134 L 46.69091,32.625073 h -3.996271 q -0.248356,0 -0.541867,0.02258 -0.270934,0.02258 -0.451556,0.06773 V 31.20267 q 0,-0.4064 0.4064,-0.4064 h 6.750763 q 0.112889,0.135466 0.158044,0.293511 0.04516,0.135467 0.04516,0.361245 0,0.428978 -0.2032,0.92569 L 43.597749,44.77193 h 4.086582 q 0.406401,0 0.745068,-0.02258 0.361244,-0.04516 0.654756,-0.158044 v 1.603024 q 0,0.180622 -0.09031,0.293511 -0.06773,0.112889 -0.31609,0.112889 z M 53.23846,46.82651 q -0.880534,0 -1.557868,-0.225778 -0.654756,-0.2032 -1.106312,-0.812801 -0.451556,-0.6096 -0.677334,-1.761068 -0.203201,-1.174046 -0.203201,-3.070581 0,-3.093159 0.993424,-4.470405 0.993423,-1.399823 2.754491,-1.399823 1.196624,0 1.964269,0.496711 0.790223,0.474134 1.174046,1.738491 0.383822,1.264357 0.383822,3.567292 0,3.18347 -0.948267,4.560716 -0.948268,1.377246 -2.77707,1.377246 z m 0.06773,-1.738491 q 0.4064,0 0.722489,-0.293511 0.316089,-0.316089 0.496712,-1.219201 0.180622,-0.92569 0.180622,-2.664181 0,-1.73849 -0.135467,-2.619025 -0.135466,-0.880534 -0.428978,-1.174045 -0.293511,-0.293512 -0.767645,-0.293512 -0.428978,0 -0.767645,0.31609 -0.31609,0.316089 -0.496712,1.219201 -0.180622,0.903112 -0.180622,2.619025 0,1.354668 0.09031,2.190046 0.09031,0.835379 0.248356,1.241779 0.180622,0.406401 0.428978,0.541868 0.270933,0.135466 0.609601,0.135466 z m 5.125166,1.512713 V 35.853699 q 0.428978,-0.2032 1.016001,-0.361245 0.6096,-0.180622 1.286934,-0.293511 0.677334,-0.112889 1.241778,-0.112889 1.19662,0 1.87396,0.293511 0.69991,0.270934 1.016,0.92569 0.31609,0.654756 0.31609,1.761068 v 8.128009 q 0,0.2032 -0.11289,0.293511 -0.0903,0.06773 -0.54187,0.09031 -0.42898,0.02258 -1.46756,0.02258 v -7.90223 q 0,-1.016001 -0.22578,-1.422402 -0.2032,-0.4064 -0.92569,-0.4064 -0.31608,0 -0.722482,0.09031 -0.383822,0.09031 -0.699911,0.270934 v 8.963387 q 0,0.2032 -0.09031,0.293511 -0.09031,0.06773 -0.519289,0.09031 -0.428978,0.02258 -1.444979,0.02258 z m 11.966223,0.225778 q -0.79022,0 -1.44498,-0.225778 -0.65476,-0.225778 -1.12889,-0.790223 -0.47413,-0.564445 -0.74507,-1.603024 -0.27093,-1.038579 -0.27093,-2.686758 0,-2.099736 0.33867,-3.364092 0.33866,-1.286935 0.90311,-1.941691 0.56444,-0.654756 1.28693,-0.880534 0.72249,-0.248356 1.46756,-0.248356 1.39982,0 2.14489,0.903112 0.74507,0.880534 0.74507,2.731914 0,0.790223 -0.0677,1.603023 -0.0677,0.812801 -0.22578,1.422402 -0.72249,0.158045 -1.64818,0.225778 -0.92569,0.06773 -1.78365,0.112889 -0.83538,0.02258 -1.37724,0.02258 -0.54187,0 -0.54187,0 l 0.0452,-1.670758 q 0,0 0.38383,0.02258 0.38382,0 0.97084,0 0.58703,0 1.15147,-0.04516 0.58702,-0.06773 0.97085,-0.180623 0.0677,-0.293511 0.0903,-0.632178 0.0226,-0.361245 0.0226,-0.677334 0,-1.174046 -0.24835,-1.603024 -0.22578,-0.428978 -0.88054,-0.428978 -0.33866,0 -0.65475,0.225778 -0.29351,0.2032 -0.51929,0.722489 -0.2032,0.51929 -0.33867,1.399824 -0.11289,0.880534 -0.11289,2.190047 0,0.970845 0.11289,1.625601 0.11289,0.654757 0.31609,1.038579 0.22578,0.383823 0.58702,0.564445 0.38383,0.158045 0.90312,0.158045 0.65475,0 1.28693,-0.180623 0.65476,-0.180622 1.2192,-0.496711 0.11289,0.293511 0.13547,0.699912 0.0452,0.383822 0.0452,0.699911 0,0.383823 -0.42897,0.677334 -0.42898,0.293512 -1.15147,0.451556 -0.69991,0.158045 -1.55787,0.158045 z"
     id="text1"
     aria-label="PhoneZone" /></svg>
