<?xml version="1.0" encoding="UTF-8" standalone="no"?>
<!-- Created with Inkscape (http://www.inkscape.org/) -->

<svg
   width="108.47504mm"
   height="32.382511mm"
   viewBox="0 0 108.47504 32.382511"
   version="1.1"
   id="svg1"
   xml:space="preserve"
   sodipodi:docname="pz_logo_hor_1_row.svg"
   xmlns:inkscape="http://www.inkscape.org/namespaces/inkscape"
   xmlns:sodipodi="http://sodipodi.sourceforge.net/DTD/sodipodi-0.dtd"
   xmlns:xlink="http://www.w3.org/1999/xlink"
   xmlns="http://www.w3.org/2000/svg"
   xmlns:svg="http://www.w3.org/2000/svg"><sodipodi:namedview
     id="namedview1"
     pagecolor="#ffffff"
     bordercolor="#000000"
     borderopacity="0.25"
     inkscape:showpageshadow="2"
     inkscape:pageopacity="0.0"
     inkscape:pagecheckerboard="0"
     inkscape:deskcolor="#d1d1d1"
     inkscape:document-units="mm" /><defs
     id="defs1"><linearGradient
       id="linearGradient17"><stop
         style="stop-color:#d61010;stop-opacity:1;"
         offset="0"
         id="stop17" /><stop
         style="stop-color:#6b0808;stop-opacity:1;"
         offset="1"
         id="stop18" /></linearGradient><linearGradient
       xlink:href="#linearGradient17"
       id="linearGradient18"
       x1="82.345284"
       y1="150.45314"
       x2="127.98591"
       y2="150.45314"
       gradientUnits="userSpaceOnUse" /><linearGradient
       xlink:href="#linearGradient17"
       id="linearGradient19"
       gradientUnits="userSpaceOnUse"
       x1="82.345284"
       y1="150.45314"
       x2="127.98591"
       y2="150.45314" /><linearGradient
       xlink:href="#linearGradient17"
       id="linearGradient20"
       gradientUnits="userSpaceOnUse"
       x1="82.345284"
       y1="150.45314"
       x2="127.98591"
       y2="150.45314" /></defs><g
     id="g18"
     transform="matrix(0.6242145,0,0,0.6242145,-51.401118,-80.875526)"
     inkscape:export-filename="g18.png"
     inkscape:export-xdpi="96"
     inkscape:export-ydpi="96"><g
       id="g17"
       style="fill:url(#linearGradient18)"><path
         style="fill:url(#linearGradient19)"
         d="m 107.97889,148.28078 c -2.34537,-0.45672 -4.45873,-0.99381 -4.69636,-1.19353 -0.53139,-0.44662 -0.56226,-1.44838 -0.0575,-1.86726 0.46926,-0.38945 9.02776,1.18115 9.74582,1.78849 0.53412,0.45175 0.60753,1.38218 0.14552,1.84419 -0.38671,0.38671 0.0147,0.43139 -5.13744,-0.57189 z"
         id="path8" /><path
         style="opacity:1;mix-blend-mode:normal;fill:url(#linearGradient20)"
         d="m 86.578613,170.80718 c -1.650153,-0.83483 -3.328899,-2.31766 -3.802097,-3.35838 -0.376951,-0.82904 -0.431236,-2.36395 -0.431236,-12.19321 0,-8.53523 0.08263,-11.47779 0.342917,-12.21174 0.490627,-1.38345 1.69794,-2.44607 4.838767,-4.25884 10.982724,-6.33882 15.088566,-8.63358 15.964926,-8.92281 2.2007,-0.72629 2.97309,-0.42863 11.31962,4.36224 4.26274,2.4468 8.28622,4.74785 8.94106,5.11347 1.98704,1.10939 3.10574,2.11378 3.68335,3.30695 0.53071,1.0963 0.54999,1.53374 0.54999,12.47843 0,10.93719 -0.0196,11.3828 -0.54886,12.47609 -0.46311,0.95667 -2.67593,3.00203 -3.24781,3.00203 -0.0846,0 -0.18775,-4.4946 -0.22913,-9.98801 l -0.0752,-9.98802 -0.68949,-1.45521 c -0.76914,-1.6233 -2.12587,-3.17479 -3.29822,-3.77166 -1.4095,-0.71761 -23.434404,-5.48876 -25.337589,-5.48876 -2.585529,0 -4.87461,1.58741 -6.104576,4.23334 -0.531598,1.14358 -0.558692,1.70442 -0.685757,14.19507 l -0.132292,13.00444 z"
         id="path4" /></g><path
       style="fill:#161f45;fill-opacity:1"
       d="m 100.14201,178.72891 -4.69286,-2.70354 -0.0035,-12.86604 c -0.003,-10.98954 0.05313,-12.91303 0.384746,-13.18825 0.575917,-0.47797 22.590364,2.92231 23.057694,3.56142 0.24265,0.33185 0.31207,2.88352 0.2787,10.24554 l -0.0444,9.80363 -6.83424,3.93383 c -3.75883,2.16361 -6.97351,3.93003 -7.14375,3.92539 -0.17023,-0.005 -2.42129,-1.22503 -5.00237,-2.71198 z"
       id="path1" /><path
       style="fill:#f3f4f6;fill-opacity:1"
       d="m 101.60346,159.71916 0.54132,-0.43122 -0.57319,-0.18192 c -0.35158,-0.11159 -0.57728,-0.4052 -0.58378,-0.75941 -0.01,-0.52989 -0.0431,-0.51752 -0.40532,0.15012 -0.21711,0.40018 -0.599292,0.73566 -0.849306,0.74551 -0.355417,0.014 -0.325987,0.08 0.13492,0.30242 0.324226,0.15648 0.670296,0.53538 0.769056,0.84199 0.13445,0.41743 0.21039,0.45777 0.30227,0.1606 0.0675,-0.21828 0.3663,-0.59092 0.66403,-0.82809 z"
       id="path3" /><path
       style="fill:#f3f4f6;fill-opacity:1"
       d="m 105.49632,137.40866 c 0,-0.93514 0.64859,-1.74678 1.63108,-2.04114 1.26469,-0.37891 1.29066,-0.67369 0.0794,-0.90093 -0.93483,-0.17538 -1.71045,-1.12053 -1.71045,-2.08432 0,-0.77054 -0.44497,-0.41148 -0.74944,0.60474 -0.29436,0.98249 -1.106,1.63108 -2.04114,1.63108 -0.75936,0 -0.36381,0.45158 0.66574,0.76004 0.89653,0.26861 1.09619,0.46827 1.3648,1.3648 0.30846,1.02955 0.76004,1.4251 0.76004,0.66573 z"
       id="path7" /><path
       style="fill:#f3f4f6;fill-opacity:1"
       d="m 115.97964,141.76184 c 0.20053,0 0.3646,-0.11907 0.3646,-0.26459 0,-0.14552 -0.18154,-0.26458 -0.40342,-0.26458 -0.22189,0 -0.53181,-0.32742 -0.68871,-0.7276 -0.28523,-0.72746 -0.28533,-0.72749 -0.51639,-0.12607 -0.12712,0.33084 -0.50181,0.70553 -0.83265,0.83265 -0.60142,0.23106 -0.60139,0.23116 0.12607,0.51639 0.40146,0.15741 0.73382,0.49576 0.74148,0.75485 0.0118,0.39998 0.0754,0.38134 0.42914,-0.12574 0.2284,-0.32742 0.57934,-0.59531 0.77988,-0.59531 z"
       id="path6" /><path
       style="fill:#f3f4f6;fill-opacity:1"
       d="m 85.862882,153.33665 c -0.288642,-0.10953 -0.592479,-0.45794 -0.675194,-0.77424 l -0.150392,-0.5751 -0.215305,0.58203 c -0.118418,0.32011 -0.485997,0.68603 -0.816842,0.81314 -0.601416,0.23106 -0.60139,0.23117 0.126068,0.51639 0.400182,0.15691 0.727604,0.45311 0.727604,0.65824 0,0.24607 0.260054,0.13579 0.764432,-0.32418 0.723613,-0.65991 0.736409,-0.70777 0.239629,-0.89628 z"
       id="path5" /><path
       style="fill:#f3f4f6;fill-opacity:1"
       d="m 110.61005,164.28123 c 0.12102,-0.60514 0.37492,-0.84908 1.15865,-1.11322 l 1.00366,-0.33827 -0.8934,-0.26309 c -0.65735,-0.19357 -0.99919,-0.51259 -1.29379,-1.20739 l -0.40038,-0.9443 -0.31615,0.92257 c -0.23933,0.69838 -0.52645,0.98289 -1.18155,1.17077 l -0.8654,0.24819 0.88784,0.41673 c 0.60252,0.28281 0.96779,0.68809 1.13662,1.26113 0.29031,0.98531 0.54648,0.93396 0.7639,-0.15312 z"
       id="path2" /></g><path
     style="font-weight:500;font-size:22.5778px;line-height:0;font-family:'Yanone Kaffeesatz';-inkscape-font-specification:'Yanone Kaffeesatz Medium';word-spacing:0px;fill:#161f45;stroke-width:0.264583"
     d="m 35.43586,18.053928 q -0.361244,0 -0.383822,-0.112889 -0.02258,-0.112889 -0.02258,-0.4064 V 9.0002299 q 0,-0.045156 0,-0.225778 0.02258,-0.2032002 0.293511,-0.2032002 h 2.05458 q 1.422402,0 2.370669,0.451556 0.948268,0.4289782 1.399824,1.4224023 0.474134,0.993423 0.474134,2.641602 0,1.444979 -0.361245,2.415825 -0.338667,0.948268 -0.92569,1.512713 -0.587023,0.564445 -1.33209,0.8128 -0.745068,0.225778 -1.580446,0.225778 z m -0.654756,6.321785 V 8.9776521 q 0,-0.225778 0.06773,-0.3160892 0.09031,-0.090311 0.338667,-0.090311 h 1.241779 q 0.316089,0 0.361244,0.2032002 0.04516,0.2032002 0.04516,0.2032002 V 23.969312 q 0,0.2032 -0.09031,0.293512 -0.09031,0.06773 -0.51929,0.09031 -0.4064,0.02258 -1.444979,0.02258 z m 2.032002,-8.21832 h 0.835379 q 0.541867,0 0.903112,-0.293511 0.383822,-0.316089 0.564445,-1.038579 0.2032,-0.72249 0.2032,-1.964269 0,-0.790223 -0.158045,-1.33209 -0.135466,-0.564445 -0.474133,-0.857956 -0.31609,-0.293512 -0.903112,-0.293512 h -0.970846 z m 6.073436,8.21832 V 8.7067185 q 0,-0.4741338 0.158045,-0.6547562 0.180622,-0.2032002 0.609601,-0.225778 0.451556,-0.045156 1.286934,-0.045156 v 5.9379627 q 0.474134,-0.428979 1.12889,-0.632179 0.654757,-0.225778 1.286935,-0.225778 0.948268,0 1.422401,0.338667 0.474134,0.338667 0.654757,0.993423 0.180622,0.654757 0.180622,1.625602 v 8.150586 q 0,0.2032 -0.112889,0.293512 -0.112889,0.06773 -0.564445,0.09031 -0.428978,0.02258 -1.444979,0.02258 v -7.947386 q 0,-0.677334 -0.2032,-1.174046 -0.180623,-0.496711 -0.92569,-0.496711 -0.316089,0 -0.699912,0.112889 -0.361245,0.112889 -0.72249,0.4064 v 8.692453 q 0,0.2032 -0.09031,0.293512 -0.06773,0.06773 -0.519289,0.09031 -0.428979,0.02258 -1.44498,0.02258 z m 11.853363,0.225778 q -0.880535,0 -1.557869,-0.225778 -0.654756,-0.203201 -1.106312,-0.812801 -0.451556,-0.609601 -0.677334,-1.761069 -0.2032,-1.174045 -0.2032,-3.070581 0,-3.093158 0.993423,-4.470404 0.993423,-1.399824 2.754492,-1.399824 1.196623,0 1.964269,0.496712 0.790223,0.474134 1.174045,1.738491 0.383823,1.264356 0.383823,3.567292 0,3.18347 -0.948268,4.560716 -0.948267,1.377246 -2.777069,1.377246 z M 54.807635,22.863 q 0.4064,0 0.72249,-0.293511 0.316089,-0.31609 0.496711,-1.219202 0.180623,-0.92569 0.180623,-2.66418 0,-1.738491 -0.135467,-2.619025 -0.135467,-0.880534 -0.428978,-1.174046 -0.293512,-0.293511 -0.767646,-0.293511 -0.428978,0 -0.767645,0.316089 -0.316089,0.316089 -0.496711,1.219201 -0.180623,0.903112 -0.180623,2.619025 0,1.354668 0.09031,2.190047 0.09031,0.835379 0.248356,1.241779 0.180623,0.4064 0.428978,0.541867 0.270934,0.135467 0.609602,0.135467 z m 5.125168,1.512713 V 13.628679 q 0.428978,-0.2032 1.016001,-0.361244 0.609601,-0.180623 1.286935,-0.293512 0.677334,-0.112889 1.241779,-0.112889 1.196623,0 1.873957,0.293512 0.699912,0.270933 1.016001,0.925689 0.31609,0.654757 0.31609,1.761069 v 8.128008 q 0,0.2032 -0.112889,0.293512 -0.09031,0.06773 -0.541868,0.09031 -0.428978,0.02258 -1.467557,0.02258 v -7.902231 q 0,-1.016001 -0.225778,-1.422401 -0.2032,-0.4064 -0.92569,-0.4064 -0.316089,0 -0.722489,0.09031 -0.383823,0.09031 -0.699912,0.270933 v 8.963387 q 0,0.2032 -0.09031,0.293512 -0.09031,0.06773 -0.51929,0.09031 -0.428978,0.02258 -1.444979,0.02258 z m 11.966228,0.225778 q -0.790223,0 -1.444979,-0.225778 -0.654756,-0.225778 -1.12889,-0.790223 -0.474134,-0.564445 -0.745067,-1.603024 -0.270934,-1.038579 -0.270934,-2.686759 0,-2.099735 0.338667,-3.364092 0.338667,-1.286934 0.903112,-1.941691 0.564445,-0.654756 1.286935,-0.880534 0.722489,-0.248356 1.467557,-0.248356 1.399823,0 2.144891,0.903112 0.745067,0.880535 0.745067,2.731914 0,0.790223 -0.06773,1.603024 -0.06773,0.812801 -0.225778,1.422401 -0.72249,0.158045 -1.64818,0.225778 -0.925689,0.06773 -1.783646,0.112889 -0.835378,0.02258 -1.377246,0.02258 -0.541867,0 -0.541867,0 l 0.04516,-1.670757 q 0,0 0.383822,0.02258 0.383823,0 0.970846,0 0.587023,0 1.151468,-0.04516 0.587022,-0.06773 0.970845,-0.180622 0.06773,-0.293512 0.09031,-0.632179 0.02258,-0.361244 0.02258,-0.677334 0,-1.174045 -0.248356,-1.603023 -0.225778,-0.428979 -0.880534,-0.428979 -0.338667,0 -0.654756,0.225778 -0.293512,0.203201 -0.51929,0.72249 -0.2032,0.519289 -0.338667,1.399824 -0.112889,0.880534 -0.112889,2.190046 0,0.970846 0.112889,1.625602 0.112889,0.654756 0.31609,1.038579 0.225778,0.383822 0.587022,0.564445 0.383823,0.158044 0.903112,0.158044 0.654757,0 1.286935,-0.180622 0.654756,-0.180622 1.219201,-0.496712 0.112889,0.293512 0.135467,0.699912 0.04516,0.383823 0.04516,0.699912 0,0.383823 -0.428979,0.677334 -0.428978,0.293511 -1.151467,0.451556 -0.699912,0.158045 -1.557869,0.158045 z m 4.515547,-0.225778 q -0.112889,-0.135467 -0.2032,-0.31609 -0.09031,-0.2032 -0.09031,-0.474133 0,-0.225778 0.04516,-0.428979 0.04516,-0.225778 0.135466,-0.474133 L 81.472011,10.400054 H 77.47574 q -0.248356,0 -0.541867,0.02258 -0.270934,0.02258 -0.451556,0.06773 V 8.9776521 q 0,-0.4064004 0.4064,-0.4064004 h 6.750763 q 0.112889,0.1354668 0.158044,0.2935114 0.04516,0.1354668 0.04516,0.3612448 0,0.4289782 -0.2032,0.9256901 L 78.37885,22.546911 h 4.086582 q 0.406401,0 0.745068,-0.02258 0.361244,-0.04516 0.654756,-0.158045 v 1.603024 q 0,0.180623 -0.09031,0.293512 -0.06773,0.112889 -0.31609,0.112889 z m 11.604983,0.225778 q -0.880534,0 -1.557868,-0.225778 -0.654757,-0.203201 -1.106313,-0.812801 -0.451556,-0.609601 -0.677334,-1.761069 -0.2032,-1.174045 -0.2032,-3.070581 0,-3.093158 0.993423,-4.470404 0.993424,-1.399824 2.754492,-1.399824 1.196624,0 1.964269,0.496712 0.790223,0.474134 1.174045,1.738491 0.383823,1.264356 0.383823,3.567292 0,3.18347 -0.948268,4.560716 -0.948267,1.377246 -2.777069,1.377246 z M 88.087291,22.863 q 0.406401,0 0.72249,-0.293511 0.316089,-0.31609 0.496712,-1.219202 0.180622,-0.92569 0.180622,-2.66418 0,-1.738491 -0.135467,-2.619025 -0.135467,-0.880534 -0.428978,-1.174046 -0.293511,-0.293511 -0.767645,-0.293511 -0.428978,0 -0.767645,0.316089 -0.31609,0.316089 -0.496712,1.219201 -0.180623,0.903112 -0.180623,2.619025 0,1.354668 0.09031,2.190047 0.09031,0.835379 0.248356,1.241779 0.180622,0.4064 0.428978,0.541867 0.270933,0.135467 0.6096,0.135467 z m 5.125167,1.512713 V 13.628679 q 0.428978,-0.2032 1.016001,-0.361244 0.6096,-0.180623 1.286934,-0.293512 0.677334,-0.112889 1.241779,-0.112889 1.196624,0 1.873958,0.293512 0.699912,0.270933 1.016001,0.925689 0.316089,0.654757 0.316089,1.761069 v 8.128008 q 0,0.2032 -0.112889,0.293512 -0.09031,0.06773 -0.541867,0.09031 -0.428978,0.02258 -1.467557,0.02258 v -7.902231 q 0,-1.016001 -0.225778,-1.422401 -0.203201,-0.4064 -0.92569,-0.4064 -0.316089,0 -0.72249,0.09031 -0.383822,0.09031 -0.699912,0.270933 v 8.963387 q 0,0.2032 -0.09031,0.293512 -0.09031,0.06773 -0.519289,0.09031 -0.428978,0.02258 -1.444979,0.02258 z m 11.966222,0.225778 q -0.79022,0 -1.44498,-0.225778 -0.65476,-0.225778 -1.12889,-0.790223 -0.47413,-0.564445 -0.74507,-1.603024 -0.27093,-1.038579 -0.27093,-2.686759 0,-2.099735 0.33867,-3.364092 0.33866,-1.286934 0.90311,-1.941691 0.56444,-0.654756 1.28693,-0.880534 0.72249,-0.248356 1.46756,-0.248356 1.39982,0 2.14489,0.903112 0.74507,0.880535 0.74507,2.731914 0,0.790223 -0.0677,1.603024 -0.0677,0.812801 -0.22578,1.422401 -0.72249,0.158045 -1.64818,0.225778 -0.92569,0.06773 -1.78365,0.112889 -0.83538,0.02258 -1.37724,0.02258 -0.54187,0 -0.54187,0 l 0.0451,-1.670757 q 0,0 0.38383,0.02258 0.38382,0 0.97084,0 0.58703,0 1.15147,-0.04516 0.58702,-0.06773 0.97085,-0.180622 0.0677,-0.293512 0.0903,-0.632179 0.0226,-0.361244 0.0226,-0.677334 0,-1.174045 -0.24835,-1.603023 -0.22578,-0.428979 -0.88054,-0.428979 -0.33866,0 -0.65475,0.225778 -0.29351,0.203201 -0.51929,0.72249 -0.2032,0.519289 -0.33867,1.399824 -0.11289,0.880534 -0.11289,2.190046 0,0.970846 0.11289,1.625602 0.11289,0.654756 0.31609,1.038579 0.22578,0.383822 0.58702,0.564445 0.38383,0.158044 0.90312,0.158044 0.65475,0 1.28693,-0.180622 0.65476,-0.180622 1.2192,-0.496712 0.11289,0.293512 0.13547,0.699912 0.0451,0.383823 0.0451,0.699912 0,0.383823 -0.42897,0.677334 -0.42898,0.293511 -1.15147,0.451556 -0.69991,0.158045 -1.55787,0.158045 z"
     id="text1"
     aria-label="PhoneZone" /></svg>
