<?xml version="1.0" encoding="UTF-8" standalone="no"?>
<!-- Created with Inkscape (http://www.inkscape.org/) -->

<svg
   width="71.108589mm"
   height="32.382515mm"
   viewBox="0 0 71.108587 32.382515"
   version="1.1"
   id="svg1"
   xml:space="preserve"
   sodipodi:docname="pz_logo_hor_1_row.svg"
   xmlns:inkscape="http://www.inkscape.org/namespaces/inkscape"
   xmlns:sodipodi="http://sodipodi.sourceforge.net/DTD/sodipodi-0.dtd"
   xmlns:xlink="http://www.w3.org/1999/xlink"
   xmlns="http://www.w3.org/2000/svg"
   xmlns:svg="http://www.w3.org/2000/svg"><sodipodi:namedview
     id="namedview1"
     pagecolor="#ffffff"
     bordercolor="#000000"
     borderopacity="0.25"
     inkscape:showpageshadow="2"
     inkscape:pageopacity="0.0"
     inkscape:pagecheckerboard="0"
     inkscape:deskcolor="#d1d1d1"
     inkscape:document-units="mm"
     showguides="true" /><defs
     id="defs1"><linearGradient
       id="linearGradient17"><stop
         style="stop-color:#d61010;stop-opacity:1;"
         offset="0"
         id="stop17" /><stop
         style="stop-color:#6b0808;stop-opacity:1;"
         offset="1"
         id="stop18" /></linearGradient><linearGradient
       xlink:href="#linearGradient17"
       id="linearGradient18"
       x1="82.345284"
       y1="150.45314"
       x2="127.98591"
       y2="150.45314"
       gradientUnits="userSpaceOnUse" /><linearGradient
       xlink:href="#linearGradient17"
       id="linearGradient19"
       gradientUnits="userSpaceOnUse"
       x1="82.345284"
       y1="150.45314"
       x2="127.98591"
       y2="150.45314" /><linearGradient
       xlink:href="#linearGradient17"
       id="linearGradient20"
       gradientUnits="userSpaceOnUse"
       x1="82.345284"
       y1="150.45314"
       x2="127.98591"
       y2="150.45314" /></defs><g
     id="g18"
     transform="matrix(0.6242145,0,0,0.6242145,-51.401118,-80.875526)"><g
       id="g17"
       style="fill:url(#linearGradient18)"><path
         style="fill:url(#linearGradient19)"
         d="m 107.97889,148.28078 c -2.34537,-0.45672 -4.45873,-0.99381 -4.69636,-1.19353 -0.53139,-0.44662 -0.56226,-1.44838 -0.0575,-1.86726 0.46926,-0.38945 9.02776,1.18115 9.74582,1.78849 0.53412,0.45175 0.60753,1.38218 0.14552,1.84419 -0.38671,0.38671 0.0147,0.43139 -5.13744,-0.57189 z"
         id="path8" /><path
         style="opacity:1;mix-blend-mode:normal;fill:url(#linearGradient20)"
         d="m 86.578613,170.80718 c -1.650153,-0.83483 -3.328899,-2.31766 -3.802097,-3.35838 -0.376951,-0.82904 -0.431236,-2.36395 -0.431236,-12.19321 0,-8.53523 0.08263,-11.47779 0.342917,-12.21174 0.490627,-1.38345 1.69794,-2.44607 4.838767,-4.25884 10.982724,-6.33882 15.088566,-8.63358 15.964926,-8.92281 2.2007,-0.72629 2.97309,-0.42863 11.31962,4.36224 4.26274,2.4468 8.28622,4.74785 8.94106,5.11347 1.98704,1.10939 3.10574,2.11378 3.68335,3.30695 0.53071,1.0963 0.54999,1.53374 0.54999,12.47843 0,10.93719 -0.0196,11.3828 -0.54886,12.47609 -0.46311,0.95667 -2.67593,3.00203 -3.24781,3.00203 -0.0846,0 -0.18775,-4.4946 -0.22913,-9.98801 l -0.0752,-9.98802 -0.68949,-1.45521 c -0.76914,-1.6233 -2.12587,-3.17479 -3.29822,-3.77166 -1.4095,-0.71761 -23.434404,-5.48876 -25.337589,-5.48876 -2.585529,0 -4.87461,1.58741 -6.104576,4.23334 -0.531598,1.14358 -0.558692,1.70442 -0.685757,14.19507 l -0.132292,13.00444 z"
         id="path4" /></g><path
       style="fill:#161f45;fill-opacity:1"
       d="m 100.14201,178.72891 -4.69286,-2.70354 -0.0035,-12.86604 c -0.003,-10.98954 0.05313,-12.91303 0.384746,-13.18825 0.575917,-0.47797 22.590364,2.92231 23.057694,3.56142 0.24265,0.33185 0.31207,2.88352 0.2787,10.24554 l -0.0444,9.80363 -6.83424,3.93383 c -3.75883,2.16361 -6.97351,3.93003 -7.14375,3.92539 -0.17023,-0.005 -2.42129,-1.22503 -5.00237,-2.71198 z"
       id="path1" /><path
       style="fill:#f3f4f6;fill-opacity:1"
       d="m 101.60346,159.71916 0.54132,-0.43122 -0.57319,-0.18192 c -0.35158,-0.11159 -0.57728,-0.4052 -0.58378,-0.75941 -0.01,-0.52989 -0.0431,-0.51752 -0.40532,0.15012 -0.21711,0.40018 -0.599292,0.73566 -0.849306,0.74551 -0.355417,0.014 -0.325987,0.08 0.13492,0.30242 0.324226,0.15648 0.670296,0.53538 0.769056,0.84199 0.13445,0.41743 0.21039,0.45777 0.30227,0.1606 0.0675,-0.21828 0.3663,-0.59092 0.66403,-0.82809 z"
       id="path3" /><path
       style="fill:#f3f4f6;fill-opacity:1"
       d="m 105.49632,137.40866 c 0,-0.93514 0.64859,-1.74678 1.63108,-2.04114 1.26469,-0.37891 1.29066,-0.67369 0.0794,-0.90093 -0.93483,-0.17538 -1.71045,-1.12053 -1.71045,-2.08432 0,-0.77054 -0.44497,-0.41148 -0.74944,0.60474 -0.29436,0.98249 -1.106,1.63108 -2.04114,1.63108 -0.75936,0 -0.36381,0.45158 0.66574,0.76004 0.89653,0.26861 1.09619,0.46827 1.3648,1.3648 0.30846,1.02955 0.76004,1.4251 0.76004,0.66573 z"
       id="path7" /><path
       style="fill:#f3f4f6;fill-opacity:1"
       d="m 115.97964,141.76184 c 0.20053,0 0.3646,-0.11907 0.3646,-0.26459 0,-0.14552 -0.18154,-0.26458 -0.40342,-0.26458 -0.22189,0 -0.53181,-0.32742 -0.68871,-0.7276 -0.28523,-0.72746 -0.28533,-0.72749 -0.51639,-0.12607 -0.12712,0.33084 -0.50181,0.70553 -0.83265,0.83265 -0.60142,0.23106 -0.60139,0.23116 0.12607,0.51639 0.40146,0.15741 0.73382,0.49576 0.74148,0.75485 0.0118,0.39998 0.0754,0.38134 0.42914,-0.12574 0.2284,-0.32742 0.57934,-0.59531 0.77988,-0.59531 z"
       id="path6" /><path
       style="fill:#f3f4f6;fill-opacity:1"
       d="m 85.862882,153.33665 c -0.288642,-0.10953 -0.592479,-0.45794 -0.675194,-0.77424 l -0.150392,-0.5751 -0.215305,0.58203 c -0.118418,0.32011 -0.485997,0.68603 -0.816842,0.81314 -0.601416,0.23106 -0.60139,0.23117 0.126068,0.51639 0.400182,0.15691 0.727604,0.45311 0.727604,0.65824 0,0.24607 0.260054,0.13579 0.764432,-0.32418 0.723613,-0.65991 0.736409,-0.70777 0.239629,-0.89628 z"
       id="path5" /><path
       style="fill:#f3f4f6;fill-opacity:1"
       d="m 110.61005,164.28123 c 0.12102,-0.60514 0.37492,-0.84908 1.15865,-1.11322 l 1.00366,-0.33827 -0.8934,-0.26309 c -0.65735,-0.19357 -0.99919,-0.51259 -1.29379,-1.20739 l -0.40038,-0.9443 -0.31615,0.92257 c -0.23933,0.69838 -0.52645,0.98289 -1.18155,1.17077 l -0.8654,0.24819 0.88784,0.41673 c 0.60252,0.28281 0.96779,0.68809 1.13662,1.26113 0.29031,0.98531 0.54648,0.93396 0.7639,-0.15312 z"
       id="path2" /></g><path
     style="font-weight:500;font-size:20.3621px;line-height:0;font-family:'Yanone Kaffeesatz';-inkscape-font-specification:'Yanone Kaffeesatz Medium';word-spacing:0px;fill:#161f45;stroke-width:0.238618"
     d="m 35.25091,9.9614372 q -0.325794,0 -0.346156,-0.1018105 -0.02036,-0.1018105 -0.02036,-0.3665178 v -7.696874 q 0,-0.040724 0,-0.203621 0.02036,-0.1832589 0.264708,-0.1832589 h 1.852951 q 1.282812,0 2.13802,0.407242 0.855209,0.3868799 1.262451,1.2828123 0.427604,0.8959325 0.427604,2.3823658 0,1.3031745 -0.325794,2.1787448 -0.305431,0.8552082 -0.834846,1.3642607 -0.529415,0.5090525 -1.201364,0.7330356 -0.671949,0.203621 -1.425347,0.203621 z M 34.660409,15.662826 V 1.7758728 q 0,-0.203621 0.06109,-0.2850694 0.08145,-0.081448 0.305432,-0.081448 h 1.119915 q 0.28507,0 0.325794,0.1832589 0.04072,0.1832589 0.04072,0.1832589 V 15.296308 q 0,0.183259 -0.08145,0.264707 -0.08145,0.06109 -0.468328,0.08145 -0.366518,0.02036 -1.303175,0.02036 z m 1.832589,-7.4118052 h 0.753398 q 0.48869,0 0.814484,-0.2647073 0.346156,-0.2850694 0.509052,-0.9366566 0.183259,-0.6515873 0.183259,-1.7715028 0,-0.7126735 -0.142534,-1.2013639 Q 38.488484,3.5677377 38.183053,3.3030304 37.897983,3.038323 37.368569,3.038323 H 36.492998 Z M 41.97041,15.662826 V 1.5315276 q 0,-0.4276041 0.142535,-0.59050088 0.162897,-0.1832589 0.549777,-0.203621 0.407242,-0.0407242 1.16064,-0.0407242 V 6.0519139 q 0.427604,-0.3868799 1.018105,-0.5701388 0.590501,-0.203621 1.160639,-0.203621 0.855209,0 1.282813,0.3054315 0.427604,0.3054315 0.590501,0.8959324 0.162896,0.590501 0.162896,1.4660713 v 7.3507187 q 0,0.183259 -0.10181,0.264707 -0.101811,0.06109 -0.509053,0.08145 -0.386879,0.02036 -1.303174,0.02036 V 8.495366 q 0,-0.610863 -0.183259,-1.0588292 -0.162897,-0.4479662 -0.834846,-0.4479662 -0.285069,0 -0.631225,0.1018105 -0.325794,0.1018105 -0.651587,0.3665178 v 7.8394091 q 0,0.183259 -0.08145,0.264707 -0.06109,0.06109 -0.468328,0.08145 -0.38688,0.02036 -1.303175,0.02036 z m 10.690119,0.203621 q -0.794122,0 -1.404985,-0.203621 -0.590501,-0.183259 -0.997743,-0.733036 -0.407242,-0.549777 -0.610863,-1.588244 -0.183258,-1.058829 -0.183258,-2.769245 0,-2.7896085 0.895932,-4.0316967 0.895932,-1.2624502 2.484176,-1.2624502 1.079192,0 1.771503,0.4479662 0.712674,0.4276041 1.058829,1.5678818 0.346156,1.1402776 0.346156,3.2172119 0,2.871057 -0.855208,4.113145 -0.855209,1.242088 -2.504539,1.242088 z m 0.06109,-1.567882 q 0.366517,0 0.651587,-0.264707 0.285069,-0.28507 0.447966,-1.099554 0.162897,-0.834846 0.162897,-2.402728 0,-1.5678817 -0.122173,-2.3620036 -0.122172,-0.7941219 -0.38688,-1.0588292 -0.264707,-0.2647073 -0.692311,-0.2647073 -0.38688,0 -0.692311,0.2850694 -0.28507,0.2850694 -0.447967,1.0995534 -0.162896,0.814484 -0.162896,2.3620043 0,1.221726 0.08145,1.975124 0.08145,0.753397 0.223983,1.119915 0.162897,0.366518 0.38688,0.48869 0.244345,0.122173 0.549777,0.122173 z m 4.622202,1.364261 V 5.9704655 q 0.38688,-0.1832589 0.916295,-0.3257936 0.549777,-0.1628968 1.16064,-0.2647073 0.610863,-0.1018105 1.119915,-0.1018105 1.079191,0 1.690054,0.2647073 0.631226,0.2443452 0.916295,0.8348461 0.285069,0.590501 0.285069,1.5882439 v 7.3303566 q 0,0.183259 -0.10181,0.264707 -0.08145,0.06109 -0.488691,0.08145 -0.386879,0.02036 -1.323536,0.02036 V 8.5360902 q 0,-0.9162945 -0.203621,-1.2828123 -0.183259,-0.3665178 -0.834846,-0.3665178 -0.28507,0 -0.651587,0.081448 -0.346156,0.081448 -0.631226,0.2443452 v 8.0837547 q 0,0.183259 -0.08145,0.264707 -0.08145,0.06109 -0.468328,0.08145 -0.38688,0.02036 -1.303175,0.02036 z m 10.791907,0.203621 q -0.712674,0 -1.303175,-0.203621 -0.5905,-0.203621 -1.018105,-0.712674 -0.427604,-0.509052 -0.671949,-1.445709 -0.244345,-0.936656 -0.244345,-2.42309 0,-1.8936756 0.305431,-3.0339532 0.305432,-1.1606397 0.814484,-1.7511407 0.509053,-0.5905009 1.16064,-0.7941219 0.651587,-0.2239831 1.323537,-0.2239831 1.26245,0 1.934399,0.814484 0.67195,0.794122 0.67195,2.4638142 0,0.7126735 -0.06109,1.4457097 -0.06109,0.733035 -0.203621,1.282812 -0.651587,0.142535 -1.486433,0.203621 -0.834846,0.06109 -1.608606,0.101811 -0.753398,0.02036 -1.242088,0.02036 -0.488691,0 -0.488691,0 l 0.04072,-1.506796 q 0,0 0.346155,0.02036 0.346156,0 0.875571,0 0.529414,0 1.038467,-0.04072 0.529414,-0.06109 0.87557,-0.162897 0.06109,-0.2647073 0.08145,-0.5701388 0.02036,-0.3257936 0.02036,-0.610863 0,-1.0588292 -0.223983,-1.4457091 -0.203622,-0.3868799 -0.794122,-0.3868799 -0.305432,0 -0.590501,0.203621 -0.264708,0.1832589 -0.468329,0.6515872 -0.183259,0.4683283 -0.305431,1.2624502 -0.101811,0.7941219 -0.101811,1.9751244 0,0.87557 0.101811,1.466071 0.10181,0.590501 0.285069,0.936657 0.203621,0.346155 0.529415,0.509052 0.346156,0.142535 0.814484,0.142535 0.590501,0 1.16064,-0.162897 0.590501,-0.162897 1.099553,-0.447966 0.101811,0.264707 0.122173,0.631225 0.04072,0.346156 0.04072,0.631225 0,0.346156 -0.38688,0.610863 -0.38688,0.264707 -1.038467,0.407242 -0.631225,0.142535 -1.404985,0.142535 z"
     id="text1-1"
     aria-label="Phone" /><path
     d="m 34.925118,31.382045 q -0.101811,-0.122173 -0.183259,-0.285069 -0.08145,-0.183259 -0.08145,-0.427604 0,-0.203622 0.04073,-0.38688 0.04072,-0.203621 0.122172,-0.427605 l 4.662917,-11.076982 h -3.604091 q -0.223984,0 -0.488691,0.02036 -0.244345,0.02036 -0.407242,0.06109 v -1.364261 q 0,-0.366517 0.366518,-0.366517 h 6.088268 q 0.10181,0.122172 0.142535,0.264707 0.04072,0.122173 0.04072,0.325794 0,0.386879 -0.183259,0.834846 l -4.744365,11.178791 h 3.68554 q 0.366518,0 0.671949,-0.02036 0.325794,-0.04072 0.590501,-0.142535 v 1.445709 q 0,0.162897 -0.08145,0.264708 -0.06109,0.10181 -0.28507,0.10181 z m 10.466109,0.203621 q -0.794121,0 -1.404984,-0.203621 -0.590501,-0.183259 -0.997743,-0.733036 -0.407242,-0.549776 -0.610863,-1.588243 -0.183259,-1.05883 -0.183259,-2.769246 0,-2.789608 0.895932,-4.031696 0.895933,-1.26245 2.484176,-1.26245 1.079192,0 1.771503,0.447966 0.712674,0.427604 1.058829,1.567882 0.346156,1.140277 0.346156,3.217212 0,2.871056 -0.855208,4.113144 -0.855208,1.242088 -2.504539,1.242088 z m 0.06109,-1.567882 q 0.366518,0 0.651587,-0.264707 0.285069,-0.285069 0.447966,-1.099553 0.162897,-0.834847 0.162897,-2.402728 0,-1.567882 -0.122173,-2.362004 -0.122172,-0.794122 -0.38688,-1.058829 -0.264707,-0.264708 -0.692311,-0.264708 -0.38688,0 -0.692311,0.28507 -0.28507,0.285069 -0.447967,1.099553 -0.162896,0.814484 -0.162896,2.362004 0,1.221726 0.08145,1.975124 0.08145,0.753397 0.223983,1.119915 0.162897,0.366518 0.38688,0.488691 0.244345,0.122172 0.549777,0.122172 z m 4.622202,1.364261 v -9.69236 q 0.38688,-0.183259 0.916294,-0.325793 0.549777,-0.162897 1.16064,-0.264708 0.610863,-0.10181 1.119916,-0.10181 1.079191,0 1.690054,0.264707 0.631225,0.244345 0.916295,0.834846 0.285069,0.590501 0.285069,1.588244 v 7.330356 q 0,0.183259 -0.10181,0.264708 -0.08145,0.06109 -0.488691,0.08145 -0.38688,0.02036 -1.323536,0.02036 V 24.25531 q 0,-0.916295 -0.203621,-1.282813 -0.183259,-0.366517 -0.834847,-0.366517 -0.285069,0 -0.651587,0.08145 -0.346156,0.08145 -0.631225,0.244345 v 8.083754 q 0,0.183259 -0.08145,0.264708 -0.08145,0.06109 -0.468329,0.08145 -0.38688,0.02036 -1.303174,0.02036 z m 10.791907,0.203621 q -0.712674,0 -1.303175,-0.203621 -0.590501,-0.203621 -1.018105,-0.712673 -0.427604,-0.509053 -0.671949,-1.44571 -0.244345,-0.936656 -0.244345,-2.42309 0,-1.893675 0.305431,-3.033953 0.305432,-1.160639 0.814484,-1.75114 0.509053,-0.590501 1.16064,-0.794122 0.651587,-0.223983 1.323536,-0.223983 1.262451,0 1.9344,0.814484 0.671949,0.794122 0.671949,2.463814 0,0.712673 -0.06109,1.445709 -0.06109,0.733036 -0.203621,1.282812 -0.651587,0.142535 -1.486433,0.203621 -0.834847,0.06109 -1.608606,0.101811 -0.753398,0.02036 -1.242089,0.02036 -0.48869,0 -0.48869,0 l 0.04072,-1.506795 q 0,0 0.346156,0.02036 0.346156,0 0.87557,0 0.529415,0 1.038467,-0.04072 0.529415,-0.06109 0.875571,-0.162896 0.06109,-0.264708 0.08145,-0.570139 0.02036,-0.325794 0.02036,-0.610863 0,-1.058829 -0.223983,-1.445709 -0.203621,-0.38688 -0.794122,-0.38688 -0.305431,0 -0.590501,0.203621 -0.264707,0.183259 -0.468328,0.651587 -0.183259,0.468328 -0.305432,1.26245 -0.10181,0.794122 -0.10181,1.975124 0,0.87557 0.10181,1.466071 0.101811,0.590501 0.28507,0.936657 0.203621,0.346156 0.529414,0.509052 0.346156,0.142535 0.814485,0.142535 0.5905,0 1.160639,-0.162897 0.590501,-0.162897 1.099554,-0.447966 0.10181,0.264707 0.122172,0.631225 0.04072,0.346156 0.04072,0.631225 0,0.346156 -0.386879,0.610863 -0.38688,0.264708 -1.038468,0.407242 -0.631225,0.142535 -1.404984,0.142535 z"
     id="text2"
     style="font-weight:500;font-size:20.3621px;line-height:0;font-family:'Yanone Kaffeesatz';-inkscape-font-specification:'Yanone Kaffeesatz Medium';word-spacing:0px;fill:#161f45;stroke-width:0.238618"
     aria-label="Zone" /></svg>
