<?xml version="1.0" encoding="UTF-8" standalone="no"?>
<!-- Created with Inkscape (http://www.inkscape.org/) -->

<svg
   width="90.474571mm"
   height="33.012642mm"
   viewBox="0 0 90.474571 33.012642"
   version="1.1"
   id="svg1"
   xml:space="preserve"
   xmlns:xlink="http://www.w3.org/1999/xlink"
   xmlns="http://www.w3.org/2000/svg"
   xmlns:svg="http://www.w3.org/2000/svg"><defs
     id="defs1"><linearGradient
       id="linearGradient17"><stop
         style="stop-color:#d61010;stop-opacity:1;"
         offset="0"
         id="stop17" /><stop
         style="stop-color:#6b0808;stop-opacity:1;"
         offset="1"
         id="stop18" /></linearGradient><linearGradient
       xlink:href="#linearGradient17"
       id="linearGradient18"
       x1="82.345284"
       y1="150.45314"
       x2="127.98591"
       y2="150.45314"
       gradientUnits="userSpaceOnUse" /><linearGradient
       xlink:href="#linearGradient17"
       id="linearGradient19"
       gradientUnits="userSpaceOnUse"
       x1="82.345284"
       y1="150.45314"
       x2="127.98591"
       y2="150.45314" /><linearGradient
       xlink:href="#linearGradient17"
       id="linearGradient20"
       gradientUnits="userSpaceOnUse"
       x1="82.345284"
       y1="150.45314"
       x2="127.98591"
       y2="150.45314" /></defs><g
     id="layer1"
     transform="translate(-40.640183,-89.483266)"><g
       id="g18"
       transform="matrix(0.6242145,0,0,0.6242145,-10.760935,8.607737)"><g
         id="g17"
         style="fill:url(#linearGradient18)"><path
           style="fill:url(#linearGradient19)"
           d="m 107.97889,148.28078 c -2.34537,-0.45672 -4.45873,-0.99381 -4.69636,-1.19353 -0.53139,-0.44662 -0.56226,-1.44838 -0.0575,-1.86726 0.46926,-0.38945 9.02776,1.18115 9.74582,1.78849 0.53412,0.45175 0.60753,1.38218 0.14552,1.84419 -0.38671,0.38671 0.0147,0.43139 -5.13744,-0.57189 z"
           id="path8" /><path
           style="opacity:1;mix-blend-mode:normal;fill:url(#linearGradient20)"
           d="m 86.578613,170.80718 c -1.650153,-0.83483 -3.328899,-2.31766 -3.802097,-3.35838 -0.376951,-0.82904 -0.431236,-2.36395 -0.431236,-12.19321 0,-8.53523 0.08263,-11.47779 0.342917,-12.21174 0.490627,-1.38345 1.69794,-2.44607 4.838767,-4.25884 10.982724,-6.33882 15.088566,-8.63358 15.964926,-8.92281 2.2007,-0.72629 2.97309,-0.42863 11.31962,4.36224 4.26274,2.4468 8.28622,4.74785 8.94106,5.11347 1.98704,1.10939 3.10574,2.11378 3.68335,3.30695 0.53071,1.0963 0.54999,1.53374 0.54999,12.47843 0,10.93719 -0.0196,11.3828 -0.54886,12.47609 -0.46311,0.95667 -2.67593,3.00203 -3.24781,3.00203 -0.0846,0 -0.18775,-4.4946 -0.22913,-9.98801 l -0.0752,-9.98802 -0.68949,-1.45521 c -0.76914,-1.6233 -2.12587,-3.17479 -3.29822,-3.77166 -1.4095,-0.71761 -23.434404,-5.48876 -25.337589,-5.48876 -2.585529,0 -4.87461,1.58741 -6.104576,4.23334 -0.531598,1.14358 -0.558692,1.70442 -0.685757,14.19507 l -0.132292,13.00444 z"
           id="path4" /></g><path
         style="fill:#161f45;fill-opacity:1"
         d="m 100.14201,178.72891 -4.69286,-2.70354 -0.0035,-12.86604 c -0.003,-10.98954 0.05313,-12.91303 0.384746,-13.18825 0.575917,-0.47797 22.590364,2.92231 23.057694,3.56142 0.24265,0.33185 0.31207,2.88352 0.2787,10.24554 l -0.0444,9.80363 -6.83424,3.93383 c -3.75883,2.16361 -6.97351,3.93003 -7.14375,3.92539 -0.17023,-0.005 -2.42129,-1.22503 -5.00237,-2.71198 z"
         id="path1" /><path
         style="fill:#ffffff;fill-opacity:1"
         d="m 101.60346,159.71916 0.54132,-0.43122 -0.57319,-0.18192 c -0.35158,-0.11159 -0.57728,-0.4052 -0.58378,-0.75941 -0.01,-0.52989 -0.0431,-0.51752 -0.40532,0.15012 -0.21711,0.40018 -0.599292,0.73566 -0.849306,0.74551 -0.355417,0.014 -0.325987,0.08 0.13492,0.30242 0.324226,0.15648 0.670296,0.53538 0.769056,0.84199 0.13445,0.41743 0.21039,0.45777 0.30227,0.1606 0.0675,-0.21828 0.3663,-0.59092 0.66403,-0.82809 z"
         id="path3" /><path
         style="fill:#ffffff;fill-opacity:1"
         d="m 105.49632,137.40866 c 0,-0.93514 0.64859,-1.74678 1.63108,-2.04114 1.26469,-0.37891 1.29066,-0.67369 0.0794,-0.90093 -0.93483,-0.17538 -1.71045,-1.12053 -1.71045,-2.08432 0,-0.77054 -0.44497,-0.41148 -0.74944,0.60474 -0.29436,0.98249 -1.106,1.63108 -2.04114,1.63108 -0.75936,0 -0.36381,0.45158 0.66574,0.76004 0.89653,0.26861 1.09619,0.46827 1.3648,1.3648 0.30846,1.02955 0.76004,1.4251 0.76004,0.66573 z"
         id="path7" /><path
         style="fill:#ffffff;fill-opacity:1"
         d="m 115.97964,141.76184 c 0.20053,0 0.3646,-0.11907 0.3646,-0.26459 0,-0.14552 -0.18154,-0.26458 -0.40342,-0.26458 -0.22189,0 -0.53181,-0.32742 -0.68871,-0.7276 -0.28523,-0.72746 -0.28533,-0.72749 -0.51639,-0.12607 -0.12712,0.33084 -0.50181,0.70553 -0.83265,0.83265 -0.60142,0.23106 -0.60139,0.23116 0.12607,0.51639 0.40146,0.15741 0.73382,0.49576 0.74148,0.75485 0.0118,0.39998 0.0754,0.38134 0.42914,-0.12574 0.2284,-0.32742 0.57934,-0.59531 0.77988,-0.59531 z"
         id="path6" /><path
         style="fill:#ffffff;fill-opacity:1"
         d="m 85.862882,153.33665 c -0.288642,-0.10953 -0.592479,-0.45794 -0.675194,-0.77424 l -0.150392,-0.5751 -0.215305,0.58203 c -0.118418,0.32011 -0.485997,0.68603 -0.816842,0.81314 -0.601416,0.23106 -0.60139,0.23117 0.126068,0.51639 0.400182,0.15691 0.727604,0.45311 0.727604,0.65824 0,0.24607 0.260054,0.13579 0.764432,-0.32418 0.723613,-0.65991 0.736409,-0.70777 0.239629,-0.89628 z"
         id="path5" /><path
         style="fill:#ffffff;fill-opacity:1"
         d="m 110.61005,164.28123 c 0.12102,-0.60514 0.37492,-0.84908 1.15865,-1.11322 l 1.00366,-0.33827 -0.8934,-0.26309 c -0.65735,-0.19357 -0.99919,-0.51259 -1.29379,-1.20739 l -0.40038,-0.9443 -0.31615,0.92257 c -0.23933,0.69838 -0.52645,0.98289 -1.18155,1.17077 l -0.8654,0.24819 0.88784,0.41673 c 0.60252,0.28281 0.96779,0.68809 1.13662,1.26113 0.29031,0.98531 0.54648,0.93396 0.7639,-0.15312 z"
         id="path2" /></g><g
       id="text20"
       style="font-size:21.2079px;fill:#161f45;stroke-width:0.24853"
       aria-label="&#10;Zone"><path
         style="font-weight:bold;font-family:'Tilt Neon';-inkscape-font-specification:'Tilt Neon, Bold'"
         d="m 75.223816,107.84126 q -0.530198,0 -0.8059,0.29691 -0.275703,0.2757 -0.275703,0.65744 0,0.38174 0.254495,0.67865 0.275702,0.27571 0.827108,0.27571 0.466574,0 0.933147,0 0.487782,0 1.081603,0 0.593821,0 1.442137,0 0.869524,0 2.12079,0 0.996772,0 1.569385,0.10604 0.572613,0.0848 0.848316,0.21207 0.29691,0.10604 0.424158,0.16967 0.127247,0.0424 0.233287,-0.0212 0.106039,-0.0848 0.318118,-0.38174 0.212079,-0.29691 0.296911,-0.57262 0.08483,-0.29691 0.04241,-0.5514 -0.04241,-0.2545 -0.212078,-0.44537 -0.148456,-0.19087 -0.424158,-0.29691 -0.275703,-0.12724 -0.636237,-0.12724 -0.360535,0 -0.50899,0.0636 -0.148455,0.0424 -0.212079,0.21208 -0.04242,0.16966 -0.169663,0.50899 -0.10604,0.33932 -0.424158,0.93315 -0.296911,0.57261 -0.933148,1.44213 -0.636237,0.86953 -1.230058,1.67543 -0.572613,0.8059 -1.060395,1.50576 -0.487782,0.67865 -0.890732,1.25126 -0.40295,0.57262 -0.69986,0.99677 -0.296911,0.40295 -0.466574,0.65745 -0.212079,0.31812 -0.487782,0.72107 -0.275702,0.38174 -0.593821,0.82711 -0.296911,0.42415 -0.615029,0.84831 -0.296911,0.42416 -0.572613,0.78469 -0.212079,0.29691 -0.296911,0.59383 -0.08483,0.2757 -0.04242,0.53019 0.04242,0.2545 0.190871,0.44537 0.169664,0.19087 0.445366,0.31812 0.275703,0.10604 0.636237,0.10604 0.466574,0 0.763485,0 0.318118,0 0.572613,0 0.275703,0 0.593821,0 0.339326,0 0.827108,0 0.487782,0 1.187643,0 0.721068,0 1.484552,0 0.763485,0 1.463345,0 0.699861,0 1.166435,0 0.530197,0 0.784692,-0.27571 0.275703,-0.29691 0.275703,-0.67865 0,-0.38174 -0.275703,-0.65744 -0.254495,-0.29691 -0.784692,-0.29691 -0.487782,0 -0.996771,0 -0.487782,0 -1.017979,0 -0.50899,0 -1.060395,0 -0.551406,0 -1.124019,0 -0.381742,0 -0.636237,0 -0.254495,0 -0.424158,0 -0.148455,0 -0.275703,0 -0.127247,0 -0.254495,0 -0.127247,0 -0.318118,0 -0.190871,0 -0.296911,0 -0.106039,-0.0212 -0.148455,-0.0424 -0.02121,-0.0424 0,-0.10604 0.02121,-0.0636 0.08483,-0.14845 0.06362,-0.0848 0.148455,-0.21208 0.08483,-0.12725 0.169663,-0.2545 0.10604,-0.14845 0.212079,-0.29691 0.127248,-0.16966 0.254495,-0.33933 0.127247,-0.19087 0.275703,-0.40295 0.148455,-0.21207 0.339326,-0.46657 0.190871,-0.25449 0.615029,-0.84832 0.424158,-0.59382 0.954356,-1.3573 0.530197,-0.76349 1.060395,-1.50576 0.530197,-0.76349 0.954355,-1.35731 0.424158,-0.59382 0.593821,-0.82711 0.233287,-0.31811 0.424158,-0.57261 0.190871,-0.2757 0.381742,-0.5514 0.190871,-0.27571 0.40295,-0.57262 0.212079,-0.29691 0.487782,-0.65744 0.212079,-0.29691 0.296911,-0.57262 0.08483,-0.29691 0.04241,-0.5514 -0.04241,-0.2545 -0.212078,-0.44537 -0.148456,-0.19087 -0.424158,-0.29691 -0.275703,-0.12724 -0.636237,-0.12724 -0.466574,0 -0.784693,0 -0.29691,0 -0.572613,0 -0.254495,0 -0.593821,0 -0.318119,0 -0.8059,0 -0.487782,0 -1.187643,0 -0.69986,0 -1.463345,0 -0.763484,0 -1.463345,0 -0.69986,0 -1.166434,0 z"
         id="path9" /><path
         style="font-weight:bold;font-family:'Tilt Neon';-inkscape-font-specification:'Tilt Neon, Bold'"
         d="m 89.602765,122.28383 q 0.50899,0.16967 0.848316,-0.0212 0.360534,-0.19087 0.487782,-0.55141 0.127247,-0.36053 -0.04242,-0.69986 -0.169663,-0.36053 -0.678653,-0.5514 -0.381742,-0.12725 -0.69986,-0.29692 -0.318119,-0.16966 -0.593822,-0.40295 -0.254494,-0.23328 -0.487781,-0.57261 -0.296911,-0.44536 -0.466574,-0.99677 -0.148455,-0.57261 -0.148455,-1.20885 0,-1.03919 0.424158,-1.84509 0.424158,-0.82711 1.187642,-1.27247 0.763484,-0.46658 1.760256,-0.46658 0.996771,0 1.760255,0.46658 0.763485,0.44536 1.187643,1.27247 0.445365,0.8059 0.445365,1.84509 0,0.63624 -0.169663,1.18764 -0.148455,0.55141 -0.445366,0.99677 -0.360534,0.50899 -0.763484,0.8059 -0.40295,0.27571 -1.039187,0.48779 -0.50899,0.19087 -0.678653,0.5514 -0.169663,0.33933 -0.04242,0.69986 0.127248,0.36054 0.466574,0.55141 0.360534,0.19087 0.848316,0.0212 0.954356,-0.33932 1.6118,-0.8059 0.657445,-0.46657 1.166435,-1.25126 0.466574,-0.67865 0.699861,-1.48455 0.254494,-0.82711 0.254494,-1.76026 0,-1.59059 -0.69986,-2.82065 -0.678653,-1.25127 -1.887503,-1.95113 -1.187643,-0.72107 -2.714611,-0.72107 -1.505761,0 -2.714612,0.72107 -1.187642,0.69986 -1.887503,1.95113 -0.678652,1.23006 -0.678652,2.82065 0,0.95436 0.254494,1.78146 0.254495,0.82711 0.699861,1.48456 0.50899,0.76348 1.166435,1.25126 0.678652,0.46658 1.569384,0.78469 z m 16.648195,-0.86952 q 0,0.5302 0.2757,0.8059 0.29691,0.2757 0.67865,0.2757 0.38175,0 0.65745,-0.2757 0.29691,-0.2757 0.29691,-0.8059 0,-0.5302 0,-0.97556 0,-0.44537 0,-0.89073 0,-0.46658 0,-0.99678 0,-0.76348 0,-1.37851 0,-0.63624 0,-1.12402 0,-1.10281 -0.31812,-1.95112 -0.31812,-0.84832 -0.89073,-1.42093 -0.57261,-0.59382 -1.35731,-0.89074 -0.76348,-0.29691 -1.67542,-0.29691 -1.10281,0 -2.05717,0.44537 -0.95435,0.44537 -1.65421,1.23006 -0.699863,0.76348 -1.102813,1.76025 -0.381742,0.99677 -0.381742,2.07838 0,0.5302 0,1.12402 0,0.57261 0,1.14522 0,0.57262 0,1.12402 0,0.5302 0,1.01798 0,0.42416 0.190871,0.69986 0.190871,0.2545 0.466574,0.33933 0.29691,0.0848 0.572613,0 0.296907,-0.0848 0.487777,-0.33933 0.19088,-0.2757 0.19088,-0.69986 0,-0.38174 0,-1.0816 0,-0.72107 0,-1.54818 0,-0.84831 0,-1.63301 0,-0.8059 0,-1.3573 0,-0.57262 0,-0.69986 0,-0.46658 0,-0.86953 0,-0.40295 0,-0.8059 0,-0.40295 0,-0.86952 0,-0.5302 -0.29691,-0.8059 -0.27571,-0.2757 -0.65745,-0.2757 -0.381742,0 -0.678652,0.2757 -0.275703,0.2757 -0.275703,0.8059 0,0.42416 0,0.84831 0,0.42416 0,0.84832 0,0.42416 0,0.84832 0,0.21208 0,0.78469 0,0.57261 0,1.3573 0,0.76349 0,1.5906 0,0.8059 0,1.50576 0,0.67865 0,1.0816 0,0.42416 0.190871,0.69986 0.190871,0.2545 0.466574,0.33933 0.29691,0.0848 0.572613,0 0.296907,-0.0848 0.487777,-0.33933 0.19088,-0.2757 0.19088,-0.69986 0,-0.48778 0,-1.12402 0,-0.65744 0,-1.31489 0,-0.65744 0,-1.23006 0,-0.59382 0,-0.95435 0,-0.82711 0.23328,-1.46335 0.23329,-0.63623 0.63624,-1.06039 0.42416,-0.42416 0.99677,-0.63624 0.57261,-0.23329 1.27247,-0.23329 0.8059,0 1.35731,0.29692 0.55141,0.29691 0.82711,0.89073 0.29691,0.57261 0.29691,1.46334 0,0.74228 0,1.37852 0,0.61502 0,1.12401 0,0.42416 0,0.93315 0,0.48778 0,0.99677 0,0.48778 0,0.93315 z m 6.72292,-5.38681 q -0.5302,0 -0.8059,0.29691 -0.2757,0.27571 -0.2757,0.65745 0,0.38174 0.2757,0.67865 0.2757,0.27571 0.8059,0.27571 0.44537,0 0.89073,0 0.46658,0 0.95436,0 0.50899,0 1.0816,0 0.57261,0 1.25127,0 0.89073,0 1.48455,-0.16967 0.61503,-0.16966 0.95436,-0.48778 0.33932,-0.33933 0.42415,-0.84832 0.0848,-0.50899 -0.0424,-1.16643 -0.21208,-1.16643 -0.86953,-1.99354 -0.63623,-0.84832 -1.6118,-1.31489 -0.97556,-0.46658 -2.14199,-0.46658 -1.46335,0 -2.62978,0.69986 -1.16644,0.67866 -1.84509,1.92992 -0.67865,1.23006 -0.67865,2.88428 0,1.71784 0.72106,2.9479 0.72107,1.23005 1.92992,1.8875 1.20885,0.65744 2.69341,0.65744 0.59382,0 1.23005,-0.12724 0.65745,-0.10604 1.31489,-0.33933 0.65745,-0.25449 1.31489,-0.63624 0.46658,-0.25449 0.55141,-0.63623 0.10604,-0.38175 -0.0848,-0.69986 -0.19087,-0.33933 -0.57262,-0.46658 -0.36053,-0.12725 -0.8271,0.14846 -0.50899,0.2757 -1.01798,0.46657 -0.48778,0.19087 -0.97557,0.29691 -0.48778,0.0848 -0.93314,0.0848 -0.99677,0 -1.78147,-0.40295 -0.76348,-0.42416 -1.20885,-1.23006 -0.44536,-0.8059 -0.44536,-1.95112 0,-1.08161 0.40295,-1.88751 0.42415,-0.8271 1.14522,-1.27247 0.74228,-0.44537 1.69664,-0.44537 0.72106,0 1.29368,0.27571 0.57261,0.25449 0.93314,0.76348 0.38175,0.48778 0.5302,1.16644 0.0424,0.21208 -0.0212,0.29691 -0.0424,0.0848 -0.16966,0.12724 -0.10604,0.0212 -0.31812,0.0212 -0.19087,-0.0212 -0.44536,-0.0212 -0.69986,0 -1.44214,0 -0.72107,0 -1.42093,0 -0.69986,0 -1.31489,0 z"
         id="path10" /></g><path
       style="font-weight:bold;font-size:21.2079px;font-family:'Tilt Neon';-inkscape-font-specification:'Tilt Neon, Bold';fill:#161f45;stroke-width:0.24853"
       d="m 77.106708,98.0314 q -0.551406,0 -0.827108,0.296911 -0.254495,0.275703 -0.254495,0.657445 0,0.381742 0.254495,0.678653 0.275702,0.275702 0.827108,0.275702 0.615029,0 0.933147,0 0.339327,0 0.8059,0 1.293682,0 2.311661,-0.572613 1.039187,-0.593821 1.611801,-1.6118 0.593821,-1.017979 0.593821,-2.332869 0,-0.975563 -0.339326,-1.802672 -0.339327,-0.827108 -0.975564,-1.442137 -0.615029,-0.615029 -1.505761,-0.954355 -0.869523,-0.339327 -1.951126,-0.339327 -0.296911,0 -0.636237,0 -0.318119,0 -0.636237,0 -0.318119,0 -0.615029,0 -0.721069,0 -1.251266,0.169664 -0.50899,0.148455 -0.827108,0.487781 -0.296911,0.339327 -0.445366,0.869524 -0.148456,0.50899 -0.148456,1.230058 0,1.208851 0,2.311661 0,1.102811 0,2.099582 0,0.996772 0,1.887503 0,0.869529 0,1.590589 0,0.44537 0,0.91194 0,0.46658 0,0.97557 0,0.50899 0,1.03918 0,0.55141 0.275703,0.82711 0.296911,0.2545 0.678653,0.2545 0.381742,0 0.657445,-0.27571 0.29691,-0.2757 0.29691,-0.8059 0,-0.53019 0,-0.99677 0,-0.46657 0,-0.93314 0,-0.46658 0,-0.99678 0,-1.0816 0,-2.141994 0,-1.081603 0,-2.078374 0,-1.017979 0,-1.929919 0,-0.933147 0,-1.739048 0,-0.29691 0,-0.466573 0.02121,-0.169664 0.08483,-0.254495 0.06362,-0.08483 0.212079,-0.10604 0.169663,-0.02121 0.466574,-0.02121 0.530197,0 0.933147,0 0.424158,0 0.954356,0 0.890731,0 1.526968,0.339327 0.636237,0.318118 0.975564,0.911939 0.360534,0.572614 0.360534,1.378514 0,0.784692 -0.339326,1.378513 -0.318119,0.572614 -0.91194,0.91194 -0.593821,0.318118 -1.357306,0.318118 -0.424158,0 -0.784692,0 -0.360534,0 -0.954355,0 z m 15.927138,6.42599 q 0,0.5302 0.275703,0.8059 0.296911,0.27571 0.678653,0.27571 0.381742,0 0.657445,-0.27571 0.29691,-0.2757 0.29691,-0.8059 0,-0.53019 0,-0.97556 0,-0.46657 0,-0.91194 0,-0.46657 0,-0.97556 0,-0.74228 0,-1.37852 0,-0.636233 0,-1.124015 0,-1.10281 -0.318118,-1.951126 -0.318119,-0.848316 -0.890732,-1.42093 -0.572613,-0.593821 -1.357305,-0.890731 -0.763485,-0.296911 -1.675424,-0.296911 -1.102811,0 -2.057167,0.445366 -0.933147,0.445366 -1.654216,1.230058 -0.69986,0.763484 -1.102811,1.760256 -0.381742,0.996771 -0.381742,2.078373 0,0.5302 0,1.12402 0,0.57261 0,1.14523 0,0.57261 0,1.12401 0,0.5302 0,1.01798 0,0.42416 0.190871,0.69986 0.190871,0.2545 0.466574,0.33933 0.296911,0.0848 0.572613,0 0.296911,-0.0848 0.487782,-0.33933 0.190871,-0.2757 0.190871,-0.69986 0,-0.44536 0,-1.3573 0,-0.93315 0,-2.09958 0,-1.166438 0,-2.375288 0,-1.208851 0,-2.269246 0,-1.060395 0,-1.760255 0,-0.699861 0,-0.8059 0,-0.593822 0,-1.01798 0,-0.445365 0,-0.784692 0,-0.360534 0,-0.678653 0,-0.339326 0,-0.69986 0,-0.530198 -0.29691,-0.784692 -0.275703,-0.275703 -0.657445,-0.275703 -0.381742,0 -0.678653,0.275703 -0.275703,0.254494 -0.275703,0.784692 0,0.360534 0,0.890732 0,0.508989 0,1.10281 0,0.593821 0,1.187643 0,0.169663 0,0.933147 0,0.742277 0,1.845087 0,1.081603 0,2.311661 0,1.230054 0,2.396494 0,1.14523 0,1.99354 0,0.84832 0,1.18764 0,0.42416 0.190871,0.69986 0.190871,0.2545 0.466574,0.33933 0.296911,0.0848 0.572613,0 0.296911,-0.0848 0.487782,-0.33933 0.190871,-0.2757 0.190871,-0.69986 0,-0.65744 0,-1.54817 0,-0.91194 0,-1.73905 0,-0.84832 0,-1.336098 0,-0.827108 0.233287,-1.463345 0.233287,-0.636237 0.636237,-1.060395 0.424158,-0.445366 0.996771,-0.657445 0.572614,-0.212079 1.272474,-0.212079 0.8059,0 1.357306,0.296911 0.551405,0.275702 0.827108,0.869523 0.29691,0.593822 0.29691,1.484553 0,0.721069 0,1.357305 0,0.63624 0,1.14523 0,0.42416 0,0.93315 0,0.48778 0,0.99677 0,0.48778 0,0.93314 z m 7.634864,0.86953 q 0.50899,0.16966 0.84831,-0.0212 0.36054,-0.19087 0.48778,-0.55141 0.12725,-0.36053 -0.0424,-0.69986 -0.16966,-0.36053 -0.67865,-0.5514 -0.38175,-0.12725 -0.69986,-0.29691 -0.31812,-0.16967 -0.593826,-0.40295 -0.254495,-0.23329 -0.487782,-0.57262 -0.29691,-0.44536 -0.466573,-0.99677 -0.148456,-0.57261 -0.148456,-1.20885 0,-1.039184 0.424158,-1.845084 0.424158,-0.827108 1.187639,-1.272474 0.76349,-0.466574 1.76026,-0.466574 0.99677,0 1.76025,0.466574 0.76349,0.445366 1.18765,1.272474 0.44536,0.8059 0.44536,1.845084 0,0.63624 -0.16966,1.18765 -0.14846,0.5514 -0.44537,0.99677 -0.36053,0.50899 -0.76348,0.8059 -0.40295,0.2757 -1.03919,0.48778 -0.50899,0.19087 -0.67865,0.5514 -0.16966,0.33933 -0.0424,0.69986 0.12725,0.36054 0.46658,0.55141 0.36053,0.19087 0.84831,0.0212 0.95436,-0.33933 1.6118,-0.8059 0.65745,-0.46658 1.16644,-1.25127 0.46657,-0.67865 0.69986,-1.48455 0.25449,-0.82711 0.25449,-1.76026 0,-1.590589 -0.69986,-2.820648 -0.67865,-1.251266 -1.8875,-1.951126 -1.18764,-0.721069 -2.71461,-0.721069 -1.50576,0 -2.714612,0.721069 -1.187642,0.69986 -1.887503,1.951126 -0.678653,1.230059 -0.678653,2.820648 0,0.95436 0.254495,1.78147 0.254495,0.8271 0.699861,1.48455 0.50899,0.76348 1.166434,1.25127 0.678653,0.46657 1.569388,0.78469 z m 16.64819,-0.86953 q 0,0.5302 0.2757,0.8059 0.29691,0.27571 0.67866,0.27571 0.38174,0 0.65744,-0.27571 0.29691,-0.2757 0.29691,-0.8059 0,-0.53019 0,-0.97556 0,-0.44537 0,-0.89073 0,-0.46658 0,-0.99677 0,-0.76349 0,-1.37852 0,-0.636233 0,-1.124015 0,-1.10281 -0.31812,-1.951126 -0.31812,-0.848316 -0.89073,-1.42093 -0.57261,-0.593821 -1.35731,-0.890731 -0.76348,-0.296911 -1.67542,-0.296911 -1.10281,0 -2.05717,0.445366 -0.95435,0.445366 -1.65421,1.230058 -0.69986,0.763484 -1.10281,1.760256 -0.38174,0.996771 -0.38174,2.078373 0,0.5302 0,1.12402 0,0.57261 0,1.14523 0,0.57261 0,1.12401 0,0.5302 0,1.01798 0,0.42416 0.19087,0.69986 0.19087,0.2545 0.46657,0.33933 0.29691,0.0848 0.57261,0 0.29691,-0.0848 0.48779,-0.33933 0.19087,-0.2757 0.19087,-0.69986 0,-0.38174 0,-1.0816 0,-0.72107 0,-1.54818 0,-0.84831 0,-1.633 0,-0.805904 0,-1.357309 0,-0.572614 0,-0.699861 0,-0.466574 0,-0.869524 0,-0.40295 0,-0.8059 0,-0.40295 0,-0.869524 0,-0.530197 -0.29691,-0.8059 -0.27571,-0.275703 -0.65745,-0.275703 -0.38174,0 -0.67865,0.275703 -0.2757,0.275703 -0.2757,0.8059 0,0.424158 0,0.848316 0,0.424158 0,0.848316 0,0.424158 0,0.848316 0,0.212079 0,0.784692 0,0.572613 0,1.357308 0,0.76348 0,1.59059 0,0.8059 0,1.50576 0,0.67865 0,1.0816 0,0.42416 0.19087,0.69986 0.19087,0.2545 0.46657,0.33933 0.29691,0.0848 0.57261,0 0.29691,-0.0848 0.48779,-0.33933 0.19087,-0.2757 0.19087,-0.69986 0,-0.48778 0,-1.12401 0,-0.65745 0,-1.31489 0,-0.65745 0,-1.23006 0,-0.59382 0,-0.954358 0,-0.827108 0.23328,-1.463345 0.23329,-0.636237 0.63624,-1.060395 0.42416,-0.424158 0.99677,-0.636237 0.57261,-0.233287 1.27248,-0.233287 0.8059,0 1.3573,0.296911 0.55141,0.29691 0.82711,0.890731 0.29691,0.572614 0.29691,1.463345 0,0.742277 0,1.378515 0,0.61503 0,1.12402 0,0.42416 0,0.93315 0,0.48778 0,0.99677 0,0.48778 0,0.93314 z m 6.72292,-5.386802 q -0.5302,0 -0.8059,0.29691 -0.2757,0.275703 -0.2757,0.657442 0,0.38175 0.2757,0.67866 0.2757,0.2757 0.8059,0.2757 0.44537,0 0.89073,0 0.46658,0 0.95436,0 0.50899,0 1.0816,0 0.57261,0 1.25127,0 0.89073,0 1.48455,-0.16966 0.61503,-0.16967 0.95436,-0.48779 0.33932,-0.339323 0.42415,-0.848312 0.0848,-0.50899 -0.0424,-1.166435 -0.21208,-1.166434 -0.86953,-1.993542 -0.63623,-0.848316 -1.6118,-1.31489 -0.97556,-0.466574 -2.14199,-0.466574 -1.46335,0 -2.62978,0.699861 -1.16644,0.678653 -1.84509,1.929919 -0.67865,1.230058 -0.67865,2.884273 0,1.71784 0.72107,2.9479 0.72106,1.23006 1.92991,1.8875 1.20885,0.65745 2.69341,0.65745 0.59382,0 1.23006,-0.12725 0.65744,-0.10604 1.31489,-0.33933 0.65744,-0.25449 1.31489,-0.63623 0.46657,-0.2545 0.5514,-0.63624 0.10604,-0.38174 -0.0848,-0.69986 -0.19087,-0.33933 -0.57261,-0.46658 -0.36054,-0.12724 -0.82711,0.14846 -0.50899,0.2757 -1.01798,0.46657 -0.48778,0.19087 -0.97557,0.29691 -0.48778,0.0848 -0.93314,0.0848 -0.99677,0 -1.78147,-0.40295 -0.76348,-0.42416 -1.20885,-1.23006 -0.44536,-0.8059 -0.44536,-1.95113 0,-1.081602 0.40295,-1.887502 0.42416,-0.827108 1.14522,-1.272474 0.74228,-0.445366 1.69664,-0.445366 0.72106,0 1.29368,0.275703 0.57261,0.254494 0.93315,0.763484 0.38174,0.487782 0.53019,1.166435 0.0424,0.212079 -0.0212,0.29691 -0.0424,0.08483 -0.16967,0.127248 -0.10604,0.02121 -0.31812,0.02121 -0.19087,-0.02121 -0.44536,-0.02121 -0.69986,0 -1.44214,0 -0.72107,0 -1.42093,0 -0.69986,0 -1.31489,0 z"
       id="text20-9"
       aria-label="Phone" /></g></svg>
