<?xml version="1.0" encoding="UTF-8" standalone="no"?>
<!-- Created with Inkscape (http://www.inkscape.org/) -->

<svg
   width="150.64473mm"
   height="32.382511mm"
   viewBox="0 0 150.64473 32.382511"
   version="1.1"
   id="svg1"
   xml:space="preserve"
   xmlns:xlink="http://www.w3.org/1999/xlink"
   xmlns="http://www.w3.org/2000/svg"
   xmlns:svg="http://www.w3.org/2000/svg"><defs
     id="defs1"><linearGradient
       id="linearGradient17"><stop
         style="stop-color:#d61010;stop-opacity:1;"
         offset="0"
         id="stop17" /><stop
         style="stop-color:#6b0808;stop-opacity:1;"
         offset="1"
         id="stop18" /></linearGradient><linearGradient
       xlink:href="#linearGradient17"
       id="linearGradient18"
       x1="82.345284"
       y1="150.45314"
       x2="127.98591"
       y2="150.45314"
       gradientUnits="userSpaceOnUse" /><linearGradient
       xlink:href="#linearGradient17"
       id="linearGradient19"
       gradientUnits="userSpaceOnUse"
       x1="82.345284"
       y1="150.45314"
       x2="127.98591"
       y2="150.45314" /><linearGradient
       xlink:href="#linearGradient17"
       id="linearGradient20"
       gradientUnits="userSpaceOnUse"
       x1="82.345284"
       y1="150.45314"
       x2="127.98591"
       y2="150.45314" /></defs><g
     id="g17"
     style="fill:url(#linearGradient18)"
     transform="matrix(0.6242145,0,0,0.6242145,-51.401118,-80.875531)"><path
       style="fill:url(#linearGradient19)"
       d="m 107.97889,148.28078 c -2.34537,-0.45672 -4.45873,-0.99381 -4.69636,-1.19353 -0.53139,-0.44662 -0.56226,-1.44838 -0.0575,-1.86726 0.46926,-0.38945 9.02776,1.18115 9.74582,1.78849 0.53412,0.45175 0.60753,1.38218 0.14552,1.84419 -0.38671,0.38671 0.0147,0.43139 -5.13744,-0.57189 z"
       id="path8" /><path
       style="opacity:1;mix-blend-mode:normal;fill:url(#linearGradient20)"
       d="m 86.578613,170.80718 c -1.650153,-0.83483 -3.328899,-2.31766 -3.802097,-3.35838 -0.376951,-0.82904 -0.431236,-2.36395 -0.431236,-12.19321 0,-8.53523 0.08263,-11.47779 0.342917,-12.21174 0.490627,-1.38345 1.69794,-2.44607 4.838767,-4.25884 10.982724,-6.33882 15.088566,-8.63358 15.964926,-8.92281 2.2007,-0.72629 2.97309,-0.42863 11.31962,4.36224 4.26274,2.4468 8.28622,4.74785 8.94106,5.11347 1.98704,1.10939 3.10574,2.11378 3.68335,3.30695 0.53071,1.0963 0.54999,1.53374 0.54999,12.47843 0,10.93719 -0.0196,11.3828 -0.54886,12.47609 -0.46311,0.95667 -2.67593,3.00203 -3.24781,3.00203 -0.0846,0 -0.18775,-4.4946 -0.22913,-9.98801 l -0.0752,-9.98802 -0.68949,-1.45521 c -0.76914,-1.6233 -2.12587,-3.17479 -3.29822,-3.77166 -1.4095,-0.71761 -23.434404,-5.48876 -25.337589,-5.48876 -2.585529,0 -4.87461,1.58741 -6.104576,4.23334 -0.531598,1.14358 -0.558692,1.70442 -0.685757,14.19507 l -0.132292,13.00444 z"
       id="path4" /></g><path
     style="fill:#161f45;fill-opacity:1;stroke-width:0.624214"
     d="m 11.108977,30.689646 -2.9293516,-1.687589 -0.00218,-8.031168 c -0.00187,-6.859831 0.033164,-8.060501 0.240164,-8.232297 0.3594958,-0.298356 14.1012326,1.824148 14.3929476,2.22309 0.151465,0.207145 0.194798,1.799935 0.173968,6.395414 l -0.02772,6.119568 -4.266032,2.455554 c -2.346316,1.350557 -4.352966,2.453182 -4.459232,2.450285 -0.10626,-0.0031 -1.511404,-0.764681 -3.122552,-1.692857 z"
     id="path1" /><path
     style="fill:#f3f4f6;fill-opacity:1;stroke-width:0.624214"
     d="m 12.021235,18.823485 0.3379,-0.269174 -0.357794,-0.113557 c -0.219461,-0.06966 -0.360346,-0.252932 -0.364404,-0.474035 -0.0062,-0.330765 -0.0269,-0.323044 -0.253006,0.09371 -0.135524,0.249798 -0.374087,0.45921 -0.530149,0.465358 -0.221857,0.0087 -0.203486,0.04994 0.08422,0.188775 0.202386,0.09768 0.418408,0.334192 0.480056,0.525583 0.08393,0.260565 0.131328,0.285746 0.188681,0.100248 0.04213,-0.136253 0.22865,-0.36886 0.414497,-0.516905 z"
     id="path3" /><path
     style="fill:#f3f4f6;fill-opacity:1;stroke-width:0.624214"
     d="m 14.451215,4.896947 c 0,-0.5837279 0.404859,-1.0903654 1.018143,-1.2741092 0.789438,-0.2365211 0.805649,-0.4205271 0.04956,-0.5623736 -0.583534,-0.1094747 -1.067688,-0.699451 -1.067688,-1.3010627 0,-0.4809823 -0.277756,-0.2568518 -0.467811,0.3774875 -0.183744,0.6132845 -0.690381,1.0181437 -1.274109,1.0181437 -0.474004,0 -0.227096,0.2818828 0.415564,0.474428 0.559627,0.1676703 0.684258,0.292301 0.851928,0.851928 0.192546,0.64266 0.474428,0.8895681 0.474428,0.4155583 z"
     id="path7" /><path
     style="fill:#f3f4f6;fill-opacity:1;stroke-width:0.624214"
     d="m 20.995055,7.6142651 c 0.125174,0 0.227589,-0.074325 0.227589,-0.1651609 0,-0.090836 -0.11332,-0.1651547 -0.251821,-0.1651547 -0.138507,0 -0.331964,-0.2043803 -0.429903,-0.4541785 -0.178044,-0.4540911 -0.178107,-0.4541098 -0.322338,-0.078695 -0.07935,0.2065151 -0.313237,0.4404021 -0.519752,0.5197522 -0.375415,0.144231 -0.375396,0.1442934 0.07869,0.3223381 0.250597,0.098258 0.458061,0.3094606 0.462842,0.4711883 0.0074,0.2496734 0.04707,0.238038 0.267876,-0.078489 0.14257,-0.2043803 0.361632,-0.3716011 0.486812,-0.3716011 z"
     id="path6" /><path
     style="fill:#f3f4f6;fill-opacity:1;stroke-width:0.624214"
     d="M 2.195738,14.839429 C 2.0155634,14.771059 1.825904,14.553577 1.7742721,14.356137 l -0.093877,-0.358985 -0.1343965,0.363311 c -0.073918,0.199818 -0.3033664,0.42823 -0.5098846,0.507574 -0.37541261,0.144231 -0.37539638,0.1443 0.078693,0.322338 0.2497994,0.09795 0.4541809,0.282838 0.4541809,0.410883 0,0.153601 0.1623295,0.08476 0.4771696,-0.202358 0.4516897,-0.411925 0.4596771,-0.4418 0.1495805,-0.559471 z"
     id="path5" /><path
     style="fill:#f3f4f6;fill-opacity:1;stroke-width:0.624214"
     d="m 17.643279,21.671195 c 0.07554,-0.377737 0.234031,-0.530008 0.723246,-0.694888 l 0.626499,-0.211153 -0.557673,-0.164225 C 18.025024,20.4801 17.811642,20.280963 17.627749,19.847259 l -0.249923,-0.589446 -0.197346,0.575882 c -0.149393,0.435939 -0.328618,0.613534 -0.73754,0.730811 l -0.540196,0.154924 0.554203,0.260129 c 0.376102,0.176534 0.604108,0.429516 0.709495,0.787216 0.181215,0.615044 0.34112,0.582991 0.476837,-0.09558 z"
     id="path2" /><path
     style="font-weight:bold;font-size:22.5778px;font-family:'Tilt Neon';-inkscape-font-specification:'Tilt Neon, Bold';fill:#f3f4f6;fill-opacity:1;stroke-width:0.264583"
     d="m 37.200267,15.985748 q -0.587023,0 -0.880534,0.31609 -0.270934,0.29351 -0.270934,0.69991 0,0.4064 0.270934,0.72249 0.293511,0.29352 0.880534,0.29352 0.654756,0 0.993423,0 0.361245,0 0.857956,0 1.377246,0 2.460981,-0.60961 1.106312,-0.63217 1.715913,-1.71591 0.632178,-1.08373 0.632178,-2.48356 0,-1.03857 -0.361245,-1.91911 -0.361245,-0.88053 -1.038579,-1.53529 -0.654756,-0.65476 -1.603023,-1.016 -0.92569,-0.36125 -2.077158,-0.36125 -0.316089,0 -0.677334,0 -0.338667,0 -0.677334,0 -0.338667,0 -0.654756,0 -0.767646,0 -1.332091,0.18063 -0.541867,0.15804 -0.880534,0.51929 -0.316089,0.36124 -0.474134,0.92569 -0.158044,0.54186 -0.158044,1.30951 0,1.28693 0,2.46098 0,1.17404 0,2.2352 0,1.06116 0,2.00943 0,0.92569 0,1.69333 0,0.47413 0,0.97085 0,0.49671 0,1.03857 0,0.54187 0,1.10632 0,0.58702 0.293511,0.88053 0.316089,0.27093 0.72249,0.27093 0.4064,0 0.699912,-0.29351 0.316089,-0.29351 0.316089,-0.85795 0,-0.56445 0,-1.06116 0,-0.49671 0,-0.99342 0,-0.49671 0,-1.06116 0,-1.15147 0,-2.28036 0,-1.15147 0,-2.21262 0,-1.08374 0,-2.05458 0,-0.99342 0,-1.85138 0,-0.31609 0,-0.49671 0.02258,-0.18063 0.09031,-0.27094 0.06773,-0.0903 0.225778,-0.11289 0.180622,-0.0226 0.496712,-0.0226 0.564445,0 0.993423,0 0.451556,0 1.016001,0 0.948267,0 1.625602,0.36124 0.677334,0.33867 1.038578,0.97085 0.383823,0.6096 0.383823,1.46755 0,0.83538 -0.361245,1.46756 -0.338667,0.6096 -0.970845,0.97085 -0.632179,0.33866 -1.44498,0.33866 -0.451556,0 -0.835378,0 -0.383823,0 -1.016001,0 z m 16.955935,6.84108 q 0,0.56444 0.293512,0.85795 0.316089,0.29351 0.722489,0.29351 0.406401,0 0.699912,-0.29351 0.316089,-0.29351 0.316089,-0.85795 0,-0.56445 0,-1.03858 0,-0.49671 0,-0.97085 0,-0.49671 0,-1.03858 0,-0.79022 0,-1.46755 0,-0.67734 0,-1.19663 0,-1.17404 -0.338667,-2.07715 -0.338667,-0.90312 -0.948267,-1.51272 -0.609601,-0.63218 -1.44498,-0.94826 -0.812801,-0.31609 -1.783646,-0.31609 -1.174046,0 -2.190047,0.47413 -0.993423,0.47413 -1.761068,1.30951 -0.745068,0.8128 -1.174046,1.87396 -0.4064,1.06116 -0.4064,2.21262 0,0.56445 0,1.19663 0,0.6096 0,1.2192 0,0.6096 0,1.19662 0,0.56445 0,1.08374 0,0.45155 0.2032,0.74506 0.2032,0.27094 0.496712,0.36125 0.316089,0.0903 0.6096,0 0.31609,-0.0903 0.51929,-0.36125 0.2032,-0.29351 0.2032,-0.74506 0,-0.47414 0,-1.44498 0,-0.99343 0,-2.2352 0,-1.24178 0,-2.52872 0,-1.28693 0,-2.41582 0,-1.12889 0,-1.87396 0,-0.74507 0,-0.85796 0,-0.63218 0,-1.08373 0,-0.47413 0,-0.83538 0,-0.38382 0,-0.72249 0,-0.36124 0,-0.74507 0,-0.56444 -0.316089,-0.83538 -0.293512,-0.29351 -0.699912,-0.29351 -0.406401,0 -0.72249,0.29351 -0.293511,0.27094 -0.293511,0.83538 0,0.38383 0,0.94827 0,0.54187 0,1.17405 0,0.63217 0,1.26435 0,0.18063 0,0.99343 0,0.79022 0,1.96427 0,1.15146 0,2.46098 0,1.30951 0,2.55129 0,1.2192 0,2.12231 0,0.90311 0,1.26436 0,0.45155 0.2032,0.74506 0.2032,0.27094 0.496712,0.36125 0.316089,0.0903 0.6096,0 0.31609,-0.0903 0.51929,-0.36125 0.2032,-0.29351 0.2032,-0.74506 0,-0.69991 0,-1.64818 0,-0.97085 0,-1.85138 0,-0.90311 0,-1.4224 0,-0.88054 0.248356,-1.55787 0.248356,-0.67734 0.677334,-1.12889 0.451556,-0.47414 1.061156,-0.69991 0.609601,-0.22578 1.354668,-0.22578 0.857957,0 1.44498,0.31609 0.587023,0.29351 0.880534,0.92569 0.316089,0.63218 0.316089,1.58044 0,0.76765 0,1.44498 0,0.67734 0,1.2192 0,0.45156 0,0.99343 0,0.51929 0,1.06115 0,0.51929 0,0.99343 z m 8.128025,0.92569 q 0.54187,0.18062 0.90311,-0.0226 0.38383,-0.2032 0.51929,-0.58702 0.13547,-0.38383 -0.0452,-0.74507 -0.18062,-0.38382 -0.72249,-0.58702 -0.4064,-0.13547 -0.74507,-0.31609 -0.33867,-0.18063 -0.63218,-0.42898 -0.27093,-0.24836 -0.51929,-0.6096 -0.31609,-0.47414 -0.49671,-1.06116 -0.15804,-0.6096 -0.15804,-1.28693 0,-1.10632 0.45155,-1.96427 0.45156,-0.88054 1.26436,-1.35467 0.8128,-0.49671 1.87396,-0.49671 1.06115,0 1.87396,0.49671 0.8128,0.47413 1.26435,1.35467 0.47414,0.85795 0.47414,1.96427 0,0.67733 -0.18063,1.26435 -0.15804,0.58703 -0.47413,1.06116 -0.38382,0.54187 -0.8128,0.85796 -0.42898,0.29351 -1.10631,0.51929 -0.54187,0.2032 -0.72249,0.58702 -0.18063,0.36124 -0.0452,0.74507 0.13547,0.38382 0.49671,0.58702 0.38383,0.2032 0.90312,0.0226 1.016,-0.36125 1.71591,-0.85796 0.69991,-0.49671 1.24178,-1.33209 0.49671,-0.72249 0.74506,-1.58045 0.27094,-0.88053 0.27094,-1.87395 0,-1.69334 -0.74507,-3.00285 -0.72249,-1.33209 -2.00942,-2.07716 -1.26436,-0.76764 -2.88996,-0.76764 -1.60303,0 -2.88996,0.76764 -1.26436,0.74507 -2.009425,2.07716 -0.72249,1.30951 -0.72249,3.00285 0,1.016 0.270934,1.89653 0.270934,0.88054 0.745071,1.58045 0.54186,0.8128 1.24178,1.33209 0.72249,0.49671 1.67075,0.83538 z m 17.72357,-0.92569 q 0,0.56444 0.29351,0.85795 0.31609,0.29351 0.72249,0.29351 0.4064,0 0.69991,-0.29351 0.31609,-0.29351 0.31609,-0.85795 0,-0.56445 0,-1.03858 0,-0.47414 0,-0.94827 0,-0.49671 0,-1.06116 0,-0.8128 0,-1.46755 0,-0.67734 0,-1.19663 0,-1.17404 -0.33867,-2.07715 -0.33866,-0.90312 -0.94827,-1.51272 -0.6096,-0.63218 -1.44497,-0.94826 -0.81281,-0.31609 -1.78365,-0.31609 -1.17405,0 -2.19005,0.47413 -1.016,0.47413 -1.76107,1.30951 -0.74506,0.8128 -1.17404,1.87396 -0.4064,1.06116 -0.4064,2.21262 0,0.56445 0,1.19663 0,0.6096 0,1.2192 0,0.6096 0,1.19662 0,0.56445 0,1.08374 0,0.45155 0.2032,0.74506 0.2032,0.27094 0.49671,0.36125 0.31609,0.0903 0.6096,0 0.31609,-0.0903 0.51929,-0.36125 0.2032,-0.29351 0.2032,-0.74506 0,-0.4064 0,-1.15147 0,-0.76765 0,-1.64818 0,-0.90311 0,-1.73849 0,-0.85796 0,-1.44498 0,-0.6096 0,-0.74507 0,-0.49671 0,-0.92569 0,-0.42898 0,-0.85795 0,-0.42898 0,-0.92569 0,-0.56445 -0.31609,-0.85796 -0.29351,-0.29351 -0.69991,-0.29351 -0.4064,0 -0.72249,0.29351 -0.29351,0.29351 -0.29351,0.85796 0,0.45155 0,0.90311 0,0.45155 0,0.90311 0,0.45156 0,0.90311 0,0.22578 0,0.83538 0,0.6096 0,1.44498 0,0.8128 0,1.69334 0,0.85795 0,1.60302 0,0.72249 0,1.15147 0,0.45155 0.2032,0.74506 0.2032,0.27094 0.49671,0.36125 0.31609,0.0903 0.6096,0 0.31609,-0.0903 0.51929,-0.36125 0.2032,-0.29351 0.2032,-0.74506 0,-0.51929 0,-1.19663 0,-0.69991 0,-1.39982 0,-0.69991 0,-1.30951 0,-0.63218 0,-1.016 0,-0.88054 0.24836,-1.55787 0.24835,-0.67734 0.67733,-1.12889 0.45156,-0.45156 1.06116,-0.67734 0.6096,-0.24835 1.35466,-0.24835 0.85796,0 1.44498,0.31609 0.58703,0.31609 0.88054,0.94827 0.31609,0.6096 0.31609,1.55786 0,0.79023 0,1.46756 0,0.65476 0,1.19662 0,0.45156 0,0.99343 0,0.51929 0,1.06115 0,0.51929 0,0.99343 z m 7.15718,-5.73476 q -0.56444,0 -0.85796,0.31608 -0.29351,0.29352 -0.29351,0.69992 0,0.4064 0.29351,0.72249 0.29352,0.29351 0.85796,0.29351 0.47413,0 0.94827,0 0.49671,0 1.016,0 0.54187,0 1.15147,0 0.6096,0 1.33209,0 0.94826,0 1.58044,-0.18062 0.65476,-0.18063 1.016,-0.51929 0.36125,-0.36125 0.45156,-0.90312 0.0903,-0.54186 -0.0452,-1.24178 -0.22577,-1.24177 -0.92569,-2.12231 -0.67733,-0.90311 -1.71591,-1.39982 -1.03858,-0.49671 -2.28036,-0.49671 -1.55786,0 -2.79964,0.74506 -1.24178,0.72249 -1.96427,2.05458 -0.72249,1.30952 -0.72249,3.07058 0,1.82881 0.76764,3.13832 0.76765,1.30951 2.05458,2.00942 1.28694,0.69991 2.86738,0.69991 0.63218,0 1.30952,-0.13546 0.69991,-0.11289 1.39982,-0.36125 0.69991,-0.27093 1.39982,-0.67733 0.49672,-0.27093 0.58703,-0.67733 0.11289,-0.40641 -0.0903,-0.74507 -0.2032,-0.36125 -0.60961,-0.49671 -0.38382,-0.13547 -0.88053,0.15804 -0.54187,0.29351 -1.08373,0.49671 -0.51929,0.2032 -1.03858,0.31609 -0.51929,0.0903 -0.99343,0.0903 -1.06115,0 -1.89653,-0.42898 -0.8128,-0.45155 -1.28694,-1.30951 -0.47413,-0.85795 -0.47413,-2.07716 0,-1.15146 0.42898,-2.00942 0.45155,-0.88053 1.2192,-1.35467 0.79022,-0.47413 1.80622,-0.47413 0.76765,0 1.37725,0.29351 0.6096,0.27093 0.99342,0.8128 0.4064,0.51929 0.56445,1.24178 0.0452,0.22578 -0.0226,0.31609 -0.0452,0.0903 -0.18062,0.13547 -0.11289,0.0226 -0.33867,0.0226 -0.2032,-0.0226 -0.47413,-0.0226 -0.74507,0 -1.53529,0 -0.76765,0 -1.51272,0 -0.74506,0 -1.39982,0 z M 102.9243,8.377028 q -0.56445,0 -0.85796,0.31609 -0.29351,0.29352 -0.29351,0.69992 0,0.4064 0.27093,0.72249 0.29352,0.29351 0.88054,0.29351 0.49671,0 0.99342,0 0.51929,0 1.15147,0 0.63218,0 1.53529,0 0.92569,0 2.25778,0 1.06116,0 1.67076,0.11289 0.6096,0.0903 0.90311,0.22577 0.31609,0.11289 0.45156,0.18063 0.13546,0.0451 0.24835,-0.0226 0.11289,-0.0903 0.33867,-0.4064 0.22578,-0.31609 0.31609,-0.6096 0.0903,-0.31609 0.0452,-0.58703 -0.0452,-0.27093 -0.22577,-0.47413 -0.15805,-0.2032 -0.45156,-0.31609 -0.29351,-0.13547 -0.67733,-0.13547 -0.38383,0 -0.54187,0.0677 -0.15805,0.0452 -0.22578,0.22578 -0.0452,0.18062 -0.18062,0.54186 -0.11289,0.36125 -0.45156,0.99343 -0.31609,0.6096 -0.99342,1.53529 -0.67734,0.92569 -1.30951,1.78364 -0.6096,0.85796 -1.12889,1.60303 -0.51929,0.72249 -0.94827,1.33209 -0.42898,0.6096 -0.74507,1.06115 -0.31609,0.42898 -0.49671,0.69992 -0.22578,0.33866 -0.51929,0.76764 -0.29351,0.4064 -0.63218,0.88054 -0.31609,0.45155 -0.65476,0.90311 -0.31608,0.45155 -0.6096,0.83538 -0.22577,0.31609 -0.31608,0.63217 -0.0903,0.29352 -0.0452,0.56445 0.0452,0.27093 0.2032,0.47413 0.18062,0.2032 0.47413,0.33867 0.29351,0.11289 0.67734,0.11289 0.49671,0 0.8128,0 0.33867,0 0.6096,0 0.29351,0 0.63218,0 0.36124,0 0.88053,0 0.51929,0 1.26436,0 0.76764,0 1.58044,0 0.81281,0 1.55787,0 0.74507,0 1.24178,0 0.56445,0 0.83538,-0.29351 0.29351,-0.31609 0.29351,-0.72249 0,-0.4064 -0.29351,-0.69991 -0.27093,-0.31609 -0.83538,-0.31609 -0.51929,0 -1.06115,0 -0.51929,0 -1.08374,0 -0.54187,0 -1.12889,0 -0.58702,0 -1.19662,0 -0.4064,0 -0.67734,0 -0.27093,0 -0.45155,0 -0.15805,0 -0.29351,0 -0.13547,0 -0.27094,0 -0.13546,0 -0.33866,0 -0.2032,0 -0.31609,0 -0.11289,-0.0226 -0.15805,-0.0452 -0.0226,-0.0451 0,-0.11289 0.0226,-0.0677 0.0903,-0.15804 0.0677,-0.0903 0.15805,-0.22578 0.0903,-0.13547 0.18062,-0.27093 0.11289,-0.15805 0.22578,-0.31609 0.13546,-0.18063 0.27093,-0.36125 0.13547,-0.2032 0.29351,-0.42898 0.15805,-0.22577 0.36125,-0.49671 0.2032,-0.27093 0.65475,-0.90311 0.45156,-0.63218 1.016,-1.44498 0.56445,-0.8128 1.12889,-1.60302 0.56445,-0.8128 1.01601,-1.44498 0.45155,-0.63218 0.63217,-0.88054 0.24836,-0.33866 0.45156,-0.6096 0.2032,-0.29351 0.4064,-0.58702 0.2032,-0.29351 0.42898,-0.6096 0.22578,-0.31609 0.51929,-0.69991 0.22578,-0.31609 0.31609,-0.6096 0.0903,-0.31609 0.0452,-0.58703 -0.0452,-0.27093 -0.22577,-0.47413 -0.15805,-0.2032 -0.45156,-0.31609 -0.29351,-0.13547 -0.67733,-0.13547 -0.49672,0 -0.83538,0 -0.31609,0 -0.6096,0 -0.27094,0 -0.63218,0 -0.33867,0 -0.85796,0 -0.51929,0 -1.26436,0 -0.74506,0 -1.55786,0 -0.8128,0 -1.55787,0 -0.74507,0 -1.24178,0 z m 15.30774,15.37549 q 0.54187,0.18062 0.90311,-0.0226 0.38382,-0.2032 0.51929,-0.58702 0.13547,-0.38383 -0.0452,-0.74507 -0.18063,-0.38382 -0.72249,-0.58702 -0.4064,-0.13547 -0.74507,-0.31609 -0.33867,-0.18063 -0.63218,-0.42898 -0.27093,-0.24836 -0.51929,-0.6096 -0.31609,-0.47414 -0.49671,-1.06116 -0.15805,-0.6096 -0.15805,-1.28693 0,-1.10632 0.45156,-1.96427 0.45156,-0.88054 1.26436,-1.35467 0.8128,-0.49671 1.87396,-0.49671 1.06115,0 1.87395,0.49671 0.8128,0.47413 1.26436,1.35467 0.47413,0.85795 0.47413,1.96427 0,0.67733 -0.18062,1.26435 -0.15804,0.58703 -0.47413,1.06116 -0.38383,0.54187 -0.8128,0.85796 -0.42898,0.29351 -1.10632,0.51929 -0.54186,0.2032 -0.72249,0.58702 -0.18062,0.36124 -0.0452,0.74507 0.13547,0.38382 0.49671,0.58702 0.38382,0.2032 0.90311,0.0226 1.016,-0.36125 1.71592,-0.85796 0.69991,-0.49671 1.24177,-1.33209 0.49672,-0.72249 0.74507,-1.58045 0.27094,-0.88053 0.27094,-1.87395 0,-1.69334 -0.74507,-3.00285 -0.72249,-1.33209 -2.00943,-2.07716 -1.26435,-0.76764 -2.88995,-0.76764 -1.60303,0 -2.88996,0.76764 -1.26436,0.74507 -2.00943,2.07716 -0.72249,1.30951 -0.72249,3.00285 0,1.016 0.27094,1.89653 0.27093,0.88054 0.74506,1.58045 0.54187,0.8128 1.24178,1.33209 0.72249,0.49671 1.67076,0.83538 z m 17.72356,-0.92569 q 0,0.56444 0.29352,0.85795 0.31609,0.29351 0.72249,0.29351 0.4064,0 0.69991,-0.29351 0.31609,-0.29351 0.31609,-0.85795 0,-0.56445 0,-1.03858 0,-0.47414 0,-0.94827 0,-0.49671 0,-1.06116 0,-0.8128 0,-1.46755 0,-0.67734 0,-1.19663 0,-1.17404 -0.33867,-2.07715 -0.33867,-0.90312 -0.94827,-1.51272 -0.6096,-0.63218 -1.44498,-0.94826 -0.8128,-0.31609 -1.78364,-0.31609 -1.17405,0 -2.19005,0.47413 -1.016,0.47413 -1.76107,1.30951 -0.74507,0.8128 -1.17404,1.87396 -0.4064,1.06116 -0.4064,2.21262 0,0.56445 0,1.19663 0,0.6096 0,1.2192 0,0.6096 0,1.19662 0,0.56445 0,1.08374 0,0.45155 0.2032,0.74506 0.2032,0.27094 0.49671,0.36125 0.31609,0.0903 0.6096,0 0.31609,-0.0903 0.51929,-0.36125 0.2032,-0.29351 0.2032,-0.74506 0,-0.4064 0,-1.15147 0,-0.76765 0,-1.64818 0,-0.90311 0,-1.73849 0,-0.85796 0,-1.44498 0,-0.6096 0,-0.74507 0,-0.49671 0,-0.92569 0,-0.42898 0,-0.85795 0,-0.42898 0,-0.92569 0,-0.56445 -0.31609,-0.85796 -0.29351,-0.29351 -0.69991,-0.29351 -0.4064,0 -0.72249,0.29351 -0.29351,0.29351 -0.29351,0.85796 0,0.45155 0,0.90311 0,0.45155 0,0.90311 0,0.45156 0,0.90311 0,0.22578 0,0.83538 0,0.6096 0,1.44498 0,0.8128 0,1.69334 0,0.85795 0,1.60302 0,0.72249 0,1.15147 0,0.45155 0.2032,0.74506 0.2032,0.27094 0.49671,0.36125 0.31609,0.0903 0.6096,0 0.31609,-0.0903 0.51929,-0.36125 0.2032,-0.29351 0.2032,-0.74506 0,-0.51929 0,-1.19663 0,-0.69991 0,-1.39982 0,-0.69991 0,-1.30951 0,-0.63218 0,-1.016 0,-0.88054 0.24835,-1.55787 0.24836,-0.67734 0.67734,-1.12889 0.45155,-0.45156 1.06115,-0.67734 0.6096,-0.24835 1.35467,-0.24835 0.85796,0 1.44498,0.31609 0.58702,0.31609 0.88054,0.94827 0.31608,0.6096 0.31608,1.55786 0,0.79023 0,1.46756 0,0.65476 0,1.19662 0,0.45156 0,0.99343 0,0.51929 0,1.06115 0,0.51929 0,0.99343 z m 7.15719,-5.73476 q -0.56445,0 -0.85796,0.31608 -0.29351,0.29352 -0.29351,0.69992 0,0.4064 0.29351,0.72249 0.29351,0.29351 0.85796,0.29351 0.47413,0 0.94827,0 0.49671,0 1.016,0 0.54186,0 1.15146,0 0.6096,0 1.33209,0 0.94827,0 1.58045,-0.18062 0.65476,-0.18063 1.016,-0.51929 0.36125,-0.36125 0.45156,-0.90312 0.0903,-0.54186 -0.0452,-1.24178 -0.22578,-1.24177 -0.92569,-2.12231 -0.67733,-0.90311 -1.71591,-1.39982 -1.03858,-0.49671 -2.28036,-0.49671 -1.55787,0 -2.79965,0.74506 -1.24178,0.72249 -1.96426,2.05458 -0.72249,1.30952 -0.72249,3.07058 0,1.82881 0.76764,3.13832 0.76765,1.30951 2.05458,2.00942 1.28694,0.69991 2.86738,0.69991 0.63218,0 1.30951,-0.13546 0.69992,-0.11289 1.39983,-0.36125 0.69991,-0.27093 1.39982,-0.67733 0.49671,-0.27093 0.58702,-0.67733 0.11289,-0.40641 -0.0903,-0.74507 -0.2032,-0.36125 -0.6096,-0.49671 -0.38382,-0.13547 -0.88053,0.15804 -0.54187,0.29351 -1.08374,0.49671 -0.51929,0.2032 -1.03858,0.31609 -0.51928,0.0903 -0.99342,0.0903 -1.06116,0 -1.89653,-0.42898 -0.8128,-0.45155 -1.28694,-1.30951 -0.47413,-0.85795 -0.47413,-2.07716 0,-1.15146 0.42898,-2.00942 0.45155,-0.88053 1.2192,-1.35467 0.79022,-0.47413 1.80622,-0.47413 0.76765,0 1.37725,0.29351 0.6096,0.27093 0.99342,0.8128 0.4064,0.51929 0.56445,1.24178 0.0452,0.22578 -0.0226,0.31609 -0.0452,0.0903 -0.18062,0.13547 -0.11289,0.0226 -0.33867,0.0226 -0.2032,-0.0226 -0.47414,-0.0226 -0.74506,0 -1.53529,0 -0.76764,0 -1.51271,0 -0.74507,0 -1.39982,0 z"
     id="text20"
     aria-label="Phone Zone" /></svg>
