<?xml version="1.0" encoding="UTF-8" standalone="no"?>
<!-- Created with Inkscape (http://www.inkscape.org/) -->

<svg
   width="111.86401mm"
   height="49.667576mm"
   viewBox="0 0 111.86401 49.667576"
   version="1.1"
   id="svg1"
   xml:space="preserve"
   xmlns:xlink="http://www.w3.org/1999/xlink"
   xmlns="http://www.w3.org/2000/svg"
   xmlns:svg="http://www.w3.org/2000/svg"><defs
     id="defs1"><linearGradient
       id="linearGradient17"><stop
         style="stop-color:#d61010;stop-opacity:1;"
         offset="0"
         id="stop17" /><stop
         style="stop-color:#6b0808;stop-opacity:1;"
         offset="1"
         id="stop18" /></linearGradient><linearGradient
       xlink:href="#linearGradient17"
       id="linearGradient18"
       x1="82.345284"
       y1="150.45314"
       x2="127.98591"
       y2="150.45314"
       gradientUnits="userSpaceOnUse" /><linearGradient
       xlink:href="#linearGradient17"
       id="linearGradient19"
       gradientUnits="userSpaceOnUse"
       x1="82.345284"
       y1="150.45314"
       x2="127.98591"
       y2="150.45314" /><linearGradient
       xlink:href="#linearGradient17"
       id="linearGradient20"
       gradientUnits="userSpaceOnUse"
       x1="82.345284"
       y1="150.45314"
       x2="127.98591"
       y2="150.45314" /></defs><g
     id="layer1"
     transform="translate(-74.736383,-72.234617)"><g
       id="g10"
       transform="translate(75.783441,-25.689278)"><g
         id="g18"
         transform="matrix(0.6242145,0,0,0.6242145,-10.760935,17.048371)"><g
           id="g17"
           style="fill:url(#linearGradient18)"><path
             style="fill:url(#linearGradient19)"
             d="m 107.97889,148.28078 c -2.34537,-0.45672 -4.45873,-0.99381 -4.69636,-1.19353 -0.53139,-0.44662 -0.56226,-1.44838 -0.0575,-1.86726 0.46926,-0.38945 9.02776,1.18115 9.74582,1.78849 0.53412,0.45175 0.60753,1.38218 0.14552,1.84419 -0.38671,0.38671 0.0147,0.43139 -5.13744,-0.57189 z"
             id="path8" /><path
             style="opacity:1;mix-blend-mode:normal;fill:url(#linearGradient20)"
             d="m 86.578613,170.80718 c -1.650153,-0.83483 -3.328899,-2.31766 -3.802097,-3.35838 -0.376951,-0.82904 -0.431236,-2.36395 -0.431236,-12.19321 0,-8.53523 0.08263,-11.47779 0.342917,-12.21174 0.490627,-1.38345 1.69794,-2.44607 4.838767,-4.25884 10.982724,-6.33882 15.088566,-8.63358 15.964926,-8.92281 2.2007,-0.72629 2.97309,-0.42863 11.31962,4.36224 4.26274,2.4468 8.28622,4.74785 8.94106,5.11347 1.98704,1.10939 3.10574,2.11378 3.68335,3.30695 0.53071,1.0963 0.54999,1.53374 0.54999,12.47843 0,10.93719 -0.0196,11.3828 -0.54886,12.47609 -0.46311,0.95667 -2.67593,3.00203 -3.24781,3.00203 -0.0846,0 -0.18775,-4.4946 -0.22913,-9.98801 l -0.0752,-9.98802 -0.68949,-1.45521 c -0.76914,-1.6233 -2.12587,-3.17479 -3.29822,-3.77166 -1.4095,-0.71761 -23.434404,-5.48876 -25.337589,-5.48876 -2.585529,0 -4.87461,1.58741 -6.104576,4.23334 -0.531598,1.14358 -0.558692,1.70442 -0.685757,14.19507 l -0.132292,13.00444 z"
             id="path4" /></g><path
           style="fill:#161f45;fill-opacity:1"
           d="m 100.14201,178.72891 -4.69286,-2.70354 -0.0035,-12.86604 c -0.003,-10.98954 0.05313,-12.91303 0.384746,-13.18825 0.575917,-0.47797 22.590364,2.92231 23.057694,3.56142 0.24265,0.33185 0.31207,2.88352 0.2787,10.24554 l -0.0444,9.80363 -6.83424,3.93383 c -3.75883,2.16361 -6.97351,3.93003 -7.14375,3.92539 -0.17023,-0.005 -2.42129,-1.22503 -5.00237,-2.71198 z"
           id="path1" /><path
           style="fill:#ffffff;fill-opacity:1"
           d="m 101.60346,159.71916 0.54132,-0.43122 -0.57319,-0.18192 c -0.35158,-0.11159 -0.57728,-0.4052 -0.58378,-0.75941 -0.01,-0.52989 -0.0431,-0.51752 -0.40532,0.15012 -0.21711,0.40018 -0.599292,0.73566 -0.849306,0.74551 -0.355417,0.014 -0.325987,0.08 0.13492,0.30242 0.324226,0.15648 0.670296,0.53538 0.769056,0.84199 0.13445,0.41743 0.21039,0.45777 0.30227,0.1606 0.0675,-0.21828 0.3663,-0.59092 0.66403,-0.82809 z"
           id="path3" /><path
           style="fill:#ffffff;fill-opacity:1"
           d="m 105.49632,137.40866 c 0,-0.93514 0.64859,-1.74678 1.63108,-2.04114 1.26469,-0.37891 1.29066,-0.67369 0.0794,-0.90093 -0.93483,-0.17538 -1.71045,-1.12053 -1.71045,-2.08432 0,-0.77054 -0.44497,-0.41148 -0.74944,0.60474 -0.29436,0.98249 -1.106,1.63108 -2.04114,1.63108 -0.75936,0 -0.36381,0.45158 0.66574,0.76004 0.89653,0.26861 1.09619,0.46827 1.3648,1.3648 0.30846,1.02955 0.76004,1.4251 0.76004,0.66573 z"
           id="path7" /><path
           style="fill:#ffffff;fill-opacity:1"
           d="m 115.97964,141.76184 c 0.20053,0 0.3646,-0.11907 0.3646,-0.26459 0,-0.14552 -0.18154,-0.26458 -0.40342,-0.26458 -0.22189,0 -0.53181,-0.32742 -0.68871,-0.7276 -0.28523,-0.72746 -0.28533,-0.72749 -0.51639,-0.12607 -0.12712,0.33084 -0.50181,0.70553 -0.83265,0.83265 -0.60142,0.23106 -0.60139,0.23116 0.12607,0.51639 0.40146,0.15741 0.73382,0.49576 0.74148,0.75485 0.0118,0.39998 0.0754,0.38134 0.42914,-0.12574 0.2284,-0.32742 0.57934,-0.59531 0.77988,-0.59531 z"
           id="path6" /><path
           style="fill:#ffffff;fill-opacity:1"
           d="m 85.862882,153.33665 c -0.288642,-0.10953 -0.592479,-0.45794 -0.675194,-0.77424 l -0.150392,-0.5751 -0.215305,0.58203 c -0.118418,0.32011 -0.485997,0.68603 -0.816842,0.81314 -0.601416,0.23106 -0.60139,0.23117 0.126068,0.51639 0.400182,0.15691 0.727604,0.45311 0.727604,0.65824 0,0.24607 0.260054,0.13579 0.764432,-0.32418 0.723613,-0.65991 0.736409,-0.70777 0.239629,-0.89628 z"
           id="path5" /><path
           style="fill:#ffffff;fill-opacity:1"
           d="m 110.61005,164.28123 c 0.12102,-0.60514 0.37492,-0.84908 1.15865,-1.11322 l 1.00366,-0.33827 -0.8934,-0.26309 c -0.65735,-0.19357 -0.99919,-0.51259 -1.29379,-1.20739 l -0.40038,-0.9443 -0.31615,0.92257 c -0.23933,0.69838 -0.52645,0.98289 -1.18155,1.17077 l -0.8654,0.24819 0.88784,0.41673 c 0.60252,0.28281 0.96779,0.68809 1.13662,1.26113 0.29031,0.98531 0.54648,0.93396 0.7639,-0.15312 z"
           id="path2" /></g></g><path
       style="font-weight:bold;font-size:22.5778px;font-family:'Tilt Neon';-inkscape-font-specification:'Tilt Neon, Bold';fill:#161f45;stroke-width:0.264583"
       d="m 78.010166,113.90965 q -0.587023,0 -0.880535,0.31609 -0.270933,0.29351 -0.270933,0.69991 0,0.4064 0.270933,0.72249 0.293512,0.29352 0.880535,0.29352 0.654756,0 0.993423,0 0.361245,0 0.857956,0 1.377246,0 2.460981,-0.60961 1.106312,-0.63217 1.715912,-1.71591 0.632179,-1.08373 0.632179,-2.48356 0,-1.03857 -0.361245,-1.91911 -0.361245,-0.88053 -1.038579,-1.53529 -0.654756,-0.65476 -1.603024,-1.016 -0.925689,-0.36125 -2.077157,-0.36125 -0.316089,0 -0.677334,0 -0.338667,0 -0.677334,0 -0.338667,0 -0.654757,0 -0.767645,0 -1.33209,0.18063 -0.541867,0.15804 -0.880534,0.51929 -0.316089,0.36124 -0.474134,0.92569 -0.158044,0.54186 -0.158044,1.30951 0,1.28693 0,2.46098 0,1.17404 0,2.2352 0,1.06116 0,2.00943 0,0.92569 0,1.69333 0,0.47413 0,0.97085 0,0.49671 0,1.03857 0,0.54187 0,1.10632 0,0.58702 0.293511,0.88053 0.316089,0.27093 0.72249,0.27093 0.4064,0 0.699911,-0.29351 0.31609,-0.29351 0.31609,-0.85795 0,-0.56445 0,-1.06116 0,-0.49671 0,-0.99342 0,-0.49671 0,-1.06116 0,-1.15147 0,-2.28036 0,-1.15147 0,-2.21262 0,-1.08374 0,-2.05458 0,-0.99342 0,-1.85138 0,-0.31609 0,-0.49671 0.02258,-0.18063 0.09031,-0.27094 0.06773,-0.0903 0.225778,-0.11289 0.180622,-0.0226 0.496711,-0.0226 0.564445,0 0.993424,0 0.451556,0 1.016001,0 0.948267,0 1.625601,0.36124 0.677334,0.33867 1.038579,0.97085 0.383823,0.6096 0.383823,1.46755 0,0.83538 -0.361245,1.46756 -0.338667,0.6096 -0.970845,0.97085 -0.632179,0.33866 -1.44498,0.33866 -0.451556,0 -0.835378,0 -0.383823,0 -1.016001,0 z m 16.955935,6.84108 q 0,0.56444 0.293511,0.85795 0.31609,0.29351 0.72249,0.29351 0.4064,0 0.699912,-0.29351 0.316089,-0.29351 0.316089,-0.85795 0,-0.56445 0,-1.03858 0,-0.49671 0,-0.97085 0,-0.49671 0,-1.03858 0,-0.79022 0,-1.46755 0,-0.67734 0,-1.19663 0,-1.17404 -0.338667,-2.07715 -0.338667,-0.90312 -0.948268,-1.51272 -0.6096,-0.63218 -1.444979,-0.94826 -0.812801,-0.31609 -1.783646,-0.31609 -1.174046,0 -2.190047,0.47413 -0.993423,0.47413 -1.761068,1.30951 -0.745068,0.8128 -1.174046,1.87396 -0.4064,1.06116 -0.4064,2.21262 0,0.56445 0,1.19663 0,0.6096 0,1.2192 0,0.6096 0,1.19662 0,0.56445 0,1.08374 0,0.45155 0.2032,0.74506 0.2032,0.27094 0.496712,0.36125 0.316089,0.0903 0.6096,0 0.316089,-0.0903 0.51929,-0.36125 0.2032,-0.29351 0.2032,-0.74506 0,-0.47414 0,-1.44498 0,-0.99343 0,-2.2352 0,-1.24178 0,-2.52872 0,-1.28693 0,-2.41582 0,-1.12889 0,-1.87396 0,-0.74507 0,-0.85796 0,-0.63218 0,-1.08373 0,-0.47413 0,-0.83538 0,-0.38382 0,-0.72249 0,-0.36124 0,-0.74507 0,-0.56444 -0.316089,-0.83538 -0.293512,-0.29351 -0.699912,-0.29351 -0.406401,0 -0.72249,0.29351 -0.293511,0.27094 -0.293511,0.83538 0,0.38383 0,0.94827 0,0.54187 0,1.17405 0,0.63217 0,1.26435 0,0.18063 0,0.99343 0,0.79022 0,1.96427 0,1.15146 0,2.46098 0,1.30951 0,2.55129 0,1.2192 0,2.12231 0,0.90311 0,1.26436 0,0.45155 0.2032,0.74506 0.2032,0.27094 0.496712,0.36125 0.316089,0.0903 0.6096,0 0.316089,-0.0903 0.51929,-0.36125 0.2032,-0.29351 0.2032,-0.74506 0,-0.69991 0,-1.64818 0,-0.97085 0,-1.85138 0,-0.90311 0,-1.4224 0,-0.88054 0.248356,-1.55787 0.248355,-0.67734 0.677334,-1.12889 0.451556,-0.47414 1.061156,-0.69991 0.609601,-0.22578 1.354668,-0.22578 0.857957,0 1.44498,0.31609 0.587022,0.29351 0.880534,0.92569 0.316089,0.63218 0.316089,1.58044 0,0.76765 0,1.44498 0,0.67734 0,1.2192 0,0.45156 0,0.99343 0,0.51929 0,1.06115 0,0.51929 0,0.99343 z m 8.128029,0.92569 q 0.54187,0.18062 0.90311,-0.0226 0.38382,-0.2032 0.51929,-0.58702 0.13547,-0.38383 -0.0452,-0.74507 -0.18062,-0.38382 -0.72249,-0.58702 -0.4064,-0.13547 -0.74506,-0.31609 -0.33867,-0.18063 -0.63218,-0.42898 -0.27093,-0.24836 -0.51929,-0.6096 -0.31609,-0.47414 -0.49671,-1.06116 -0.15805,-0.6096 -0.15805,-1.28693 0,-1.10632 0.45156,-1.96427 0.45156,-0.88054 1.26436,-1.35467 0.8128,-0.49671 1.87395,-0.49671 1.06116,0 1.87396,0.49671 0.8128,0.47413 1.26436,1.35467 0.47413,0.85795 0.47413,1.96427 0,0.67733 -0.18062,1.26435 -0.15805,0.58703 -0.47413,1.06116 -0.38383,0.54187 -0.81281,0.85796 -0.42897,0.29351 -1.10631,0.51929 -0.54186,0.2032 -0.72249,0.58702 -0.18062,0.36124 -0.0451,0.74507 0.13546,0.38382 0.49671,0.58702 0.38382,0.2032 0.90311,0.0226 1.016,-0.36125 1.71591,-0.85796 0.69992,-0.49671 1.24178,-1.33209 0.49671,-0.72249 0.74507,-1.58045 0.27093,-0.88053 0.27093,-1.87395 0,-1.69334 -0.74506,-3.00285 -0.72249,-1.33209 -2.00943,-2.07716 -1.26435,-0.76764 -2.88996,-0.76764 -1.60302,0 -2.88995,0.76764 -1.26436,0.74507 -2.009429,2.07716 -0.72249,1.30951 -0.72249,3.00285 0,1.016 0.270934,1.89653 0.270934,0.88054 0.745065,1.58045 0.54187,0.8128 1.24178,1.33209 0.72249,0.49671 1.67076,0.83538 z m 17.72356,-0.92569 q 0,0.56444 0.29351,0.85795 0.31609,0.29351 0.72249,0.29351 0.4064,0 0.69992,-0.29351 0.31609,-0.29351 0.31609,-0.85795 0,-0.56445 0,-1.03858 0,-0.47414 0,-0.94827 0,-0.49671 0,-1.06116 0,-0.8128 0,-1.46755 0,-0.67734 0,-1.19663 0,-1.17404 -0.33867,-2.07715 -0.33867,-0.90312 -0.94827,-1.51272 -0.6096,-0.63218 -1.44498,-0.94826 -0.8128,-0.31609 -1.78365,-0.31609 -1.17404,0 -2.19004,0.47413 -1.016,0.47413 -1.76107,1.30951 -0.74507,0.8128 -1.17405,1.87396 -0.4064,1.06116 -0.4064,2.21262 0,0.56445 0,1.19663 0,0.6096 0,1.2192 0,0.6096 0,1.19662 0,0.56445 0,1.08374 0,0.45155 0.2032,0.74506 0.2032,0.27094 0.49672,0.36125 0.31608,0.0903 0.6096,0 0.31609,-0.0903 0.51929,-0.36125 0.2032,-0.29351 0.2032,-0.74506 0,-0.4064 0,-1.15147 0,-0.76765 0,-1.64818 0,-0.90311 0,-1.73849 0,-0.85796 0,-1.44498 0,-0.6096 0,-0.74507 0,-0.49671 0,-0.92569 0,-0.42898 0,-0.85795 0,-0.42898 0,-0.92569 0,-0.56445 -0.31609,-0.85796 -0.29351,-0.29351 -0.69992,-0.29351 -0.4064,0 -0.72248,0.29351 -0.29352,0.29351 -0.29352,0.85796 0,0.45155 0,0.90311 0,0.45155 0,0.90311 0,0.45156 0,0.90311 0,0.22578 0,0.83538 0,0.6096 0,1.44498 0,0.8128 0,1.69334 0,0.85795 0,1.60302 0,0.72249 0,1.15147 0,0.45155 0.2032,0.74506 0.2032,0.27094 0.49672,0.36125 0.31608,0.0903 0.6096,0 0.31609,-0.0903 0.51929,-0.36125 0.2032,-0.29351 0.2032,-0.74506 0,-0.51929 0,-1.19663 0,-0.69991 0,-1.39982 0,-0.69991 0,-1.30951 0,-0.63218 0,-1.016 0,-0.88054 0.24835,-1.55787 0.24836,-0.67734 0.67734,-1.12889 0.45155,-0.45156 1.06115,-0.67734 0.6096,-0.24835 1.35467,-0.24835 0.85796,0 1.44498,0.31609 0.58702,0.31609 0.88053,0.94827 0.31609,0.6096 0.31609,1.55786 0,0.79023 0,1.46756 0,0.65476 0,1.19662 0,0.45156 0,0.99343 0,0.51929 0,1.06115 0,0.51929 0,0.99343 z m 7.15719,-5.73476 q -0.56445,0 -0.85796,0.31608 -0.29351,0.29352 -0.29351,0.69992 0,0.4064 0.29351,0.72249 0.29351,0.29351 0.85796,0.29351 0.47413,0 0.94826,0 0.49672,0 1.016,0 0.54187,0 1.15147,0 0.6096,0 1.33209,0 0.94827,0 1.58045,-0.18062 0.65476,-0.18063 1.016,-0.51929 0.36124,-0.36125 0.45156,-0.90312 0.0903,-0.54186 -0.0452,-1.24178 -0.22578,-1.24177 -0.92569,-2.12231 -0.67733,-0.90311 -1.71591,-1.39982 -1.03858,-0.49671 -2.28036,-0.49671 -1.55787,0 -2.79965,0.74506 -1.24178,0.72249 -1.96427,2.05458 -0.72249,1.30952 -0.72249,3.07058 0,1.82881 0.76765,3.13832 0.76764,1.30951 2.05458,2.00942 1.28693,0.69991 2.86738,0.69991 0.63218,0 1.30951,-0.13546 0.69991,-0.11289 1.39983,-0.36125 0.69991,-0.27093 1.39982,-0.67733 0.49671,-0.27093 0.58702,-0.67733 0.11289,-0.40641 -0.0903,-0.74507 -0.2032,-0.36125 -0.6096,-0.49671 -0.38382,-0.13547 -0.88053,0.15804 -0.54187,0.29351 -1.08374,0.49671 -0.51929,0.2032 -1.03858,0.31609 -0.51929,0.0903 -0.99342,0.0903 -1.06116,0 -1.89654,-0.42898 -0.8128,-0.45155 -1.28693,-1.30951 -0.47413,-0.85795 -0.47413,-2.07716 0,-1.15146 0.42897,-2.00942 0.45156,-0.88053 1.21921,-1.35467 0.79022,-0.47413 1.80622,-0.47413 0.76765,0 1.37725,0.29351 0.6096,0.27093 0.99342,0.8128 0.4064,0.51929 0.56444,1.24178 0.0452,0.22578 -0.0226,0.31609 -0.0452,0.0903 -0.18063,0.13547 -0.11289,0.0226 -0.33866,0.0226 -0.2032,-0.0226 -0.47414,-0.0226 -0.74506,0 -1.53529,0 -0.76764,0 -1.51271,0 -0.74507,0 -1.39982,0 z m 10.90508,-8.71504 q -0.56444,0 -0.85795,0.31609 -0.29352,0.29352 -0.29352,0.69992 0,0.4064 0.27094,0.72249 0.29351,0.29351 0.88053,0.29351 0.49671,0 0.99342,0 0.51929,0 1.15147,0 0.63218,0 1.53529,0 0.92569,0 2.25778,0 1.06116,0 1.67076,0.11289 0.6096,0.0903 0.90311,0.22577 0.31609,0.11289 0.45156,0.18063 0.13547,0.0451 0.24835,-0.0226 0.11289,-0.0903 0.33867,-0.4064 0.22578,-0.31609 0.31609,-0.6096 0.0903,-0.31609 0.0452,-0.58703 -0.0452,-0.27093 -0.22578,-0.47413 -0.15805,-0.2032 -0.45156,-0.31609 -0.29351,-0.13547 -0.67733,-0.13547 -0.38382,0 -0.54187,0.0677 -0.15804,0.0452 -0.22578,0.22578 -0.0452,0.18062 -0.18062,0.54186 -0.11289,0.36125 -0.45156,0.99343 -0.31608,0.6096 -0.99342,1.53529 -0.67733,0.92569 -1.30951,1.78364 -0.6096,0.85796 -1.12889,1.60303 -0.51929,0.72249 -0.94827,1.33209 -0.42898,0.6096 -0.74507,1.06115 -0.31609,0.42898 -0.49671,0.69992 -0.22578,0.33866 -0.51929,0.76764 -0.29351,0.4064 -0.63218,0.88054 -0.31608,0.45155 -0.65475,0.90311 -0.31609,0.45155 -0.6096,0.83538 -0.22578,0.31609 -0.31609,0.63217 -0.0903,0.29352 -0.0452,0.56445 0.0452,0.27093 0.2032,0.47413 0.18063,0.2032 0.47414,0.33867 0.29351,0.11289 0.67733,0.11289 0.49671,0 0.8128,0 0.33867,0 0.6096,0 0.29351,0 0.63218,0 0.36125,0 0.88053,0 0.51929,0 1.26436,0 0.76765,0 1.58045,0 0.8128,0 1.55787,0 0.74506,0 1.24177,0 0.56445,0 0.83538,-0.29351 0.29352,-0.31609 0.29352,-0.72249 0,-0.4064 -0.29352,-0.69991 -0.27093,-0.31609 -0.83538,-0.31609 -0.51928,0 -1.06115,0 -0.51929,0 -1.08374,0 -0.54186,0 -1.12889,0 -0.58702,0 -1.19662,0 -0.4064,0 -0.67733,0 -0.27094,0 -0.45156,0 -0.15804,0 -0.29351,0 -0.13547,0 -0.27093,0 -0.13547,0 -0.33867,0 -0.2032,0 -0.31609,0 -0.11289,-0.0226 -0.15805,-0.0452 -0.0226,-0.0451 0,-0.11289 0.0226,-0.0677 0.0903,-0.15804 0.0677,-0.0903 0.15804,-0.22578 0.0903,-0.13547 0.18062,-0.27093 0.11289,-0.15805 0.22578,-0.31609 0.13547,-0.18063 0.27093,-0.36125 0.13547,-0.2032 0.29352,-0.42898 0.15804,-0.22577 0.36124,-0.49671 0.2032,-0.27093 0.65476,-0.90311 0.45155,-0.63218 1.016,-1.44498 0.56444,-0.8128 1.12889,-1.60302 0.56444,-0.8128 1.016,-1.44498 0.45155,-0.63218 0.63218,-0.88054 0.24835,-0.33866 0.45155,-0.6096 0.2032,-0.29351 0.4064,-0.58702 0.2032,-0.29351 0.42898,-0.6096 0.22578,-0.31609 0.51929,-0.69991 0.22578,-0.31609 0.31609,-0.6096 0.0903,-0.31609 0.0452,-0.58703 -0.0452,-0.27093 -0.22578,-0.47413 -0.15805,-0.2032 -0.45156,-0.31609 -0.29351,-0.13547 -0.67733,-0.13547 -0.49671,0 -0.83538,0 -0.31609,0 -0.6096,0 -0.27093,0 -0.63218,0 -0.33867,0 -0.85796,0 -0.51929,0 -1.26435,0 -0.74507,0 -1.55787,0 -0.8128,0 -1.55787,0 -0.74507,0 -1.24178,0 z m 15.30774,15.37549 q 0.54187,0.18062 0.90312,-0.0226 0.38382,-0.2032 0.51928,-0.58702 0.13547,-0.38383 -0.0451,-0.74507 -0.18062,-0.38382 -0.72249,-0.58702 -0.4064,-0.13547 -0.74507,-0.31609 -0.33867,-0.18063 -0.63218,-0.42898 -0.27093,-0.24836 -0.51929,-0.6096 -0.31609,-0.47414 -0.49671,-1.06116 -0.15804,-0.6096 -0.15804,-1.28693 0,-1.10632 0.45155,-1.96427 0.45156,-0.88054 1.26436,-1.35467 0.8128,-0.49671 1.87396,-0.49671 1.06115,0 1.87396,0.49671 0.8128,0.47413 1.26435,1.35467 0.47414,0.85795 0.47414,1.96427 0,0.67733 -0.18063,1.26435 -0.15804,0.58703 -0.47413,1.06116 -0.38382,0.54187 -0.8128,0.85796 -0.42898,0.29351 -1.10631,0.51929 -0.54187,0.2032 -0.72249,0.58702 -0.18062,0.36124 -0.0452,0.74507 0.13547,0.38382 0.49671,0.58702 0.38383,0.2032 0.90312,0.0226 1.016,-0.36125 1.71591,-0.85796 0.69991,-0.49671 1.24178,-1.33209 0.49671,-0.72249 0.74506,-1.58045 0.27094,-0.88053 0.27094,-1.87395 0,-1.69334 -0.74507,-3.00285 -0.72249,-1.33209 -2.00942,-2.07716 -1.26436,-0.76764 -2.88996,-0.76764 -1.60303,0 -2.88996,0.76764 -1.26436,0.74507 -2.00942,2.07716 -0.72249,1.30951 -0.72249,3.00285 0,1.016 0.27093,1.89653 0.27093,0.88054 0.74507,1.58045 0.54186,0.8128 1.24178,1.33209 0.72249,0.49671 1.67075,0.83538 z m 17.72357,-0.92569 q 0,0.56444 0.29351,0.85795 0.31609,0.29351 0.72249,0.29351 0.4064,0 0.69991,-0.29351 0.31609,-0.29351 0.31609,-0.85795 0,-0.56445 0,-1.03858 0,-0.47414 0,-0.94827 0,-0.49671 0,-1.06116 0,-0.8128 0,-1.46755 0,-0.67734 0,-1.19663 0,-1.17404 -0.33867,-2.07715 -0.33866,-0.90312 -0.94826,-1.51272 -0.60961,-0.63218 -1.44498,-0.94826 -0.81281,-0.31609 -1.78365,-0.31609 -1.17405,0 -2.19005,0.47413 -1.016,0.47413 -1.76107,1.30951 -0.74506,0.8128 -1.17404,1.87396 -0.4064,1.06116 -0.4064,2.21262 0,0.56445 0,1.19663 0,0.6096 0,1.2192 0,0.6096 0,1.19662 0,0.56445 0,1.08374 0,0.45155 0.2032,0.74506 0.2032,0.27094 0.49671,0.36125 0.31609,0.0903 0.6096,0 0.31609,-0.0903 0.51929,-0.36125 0.2032,-0.29351 0.2032,-0.74506 0,-0.4064 0,-1.15147 0,-0.76765 0,-1.64818 0,-0.90311 0,-1.73849 0,-0.85796 0,-1.44498 0,-0.6096 0,-0.74507 0,-0.49671 0,-0.92569 0,-0.42898 0,-0.85795 0,-0.42898 0,-0.92569 0,-0.56445 -0.31609,-0.85796 -0.29351,-0.29351 -0.69991,-0.29351 -0.4064,0 -0.72249,0.29351 -0.29351,0.29351 -0.29351,0.85796 0,0.45155 0,0.90311 0,0.45155 0,0.90311 0,0.45156 0,0.90311 0,0.22578 0,0.83538 0,0.6096 0,1.44498 0,0.8128 0,1.69334 0,0.85795 0,1.60302 0,0.72249 0,1.15147 0,0.45155 0.2032,0.74506 0.2032,0.27094 0.49671,0.36125 0.31609,0.0903 0.6096,0 0.31609,-0.0903 0.51929,-0.36125 0.2032,-0.29351 0.2032,-0.74506 0,-0.51929 0,-1.19663 0,-0.69991 0,-1.39982 0,-0.69991 0,-1.30951 0,-0.63218 0,-1.016 0,-0.88054 0.24836,-1.55787 0.24835,-0.67734 0.67733,-1.12889 0.45156,-0.45156 1.06116,-0.67734 0.6096,-0.24835 1.35466,-0.24835 0.85796,0 1.44498,0.31609 0.58703,0.31609 0.88054,0.94827 0.31609,0.6096 0.31609,1.55786 0,0.79023 0,1.46756 0,0.65476 0,1.19662 0,0.45156 0,0.99343 0,0.51929 0,1.06115 0,0.51929 0,0.99343 z m 7.15718,-5.73476 q -0.56444,0 -0.85796,0.31608 -0.29351,0.29352 -0.29351,0.69992 0,0.4064 0.29351,0.72249 0.29352,0.29351 0.85796,0.29351 0.47413,0 0.94827,0 0.49671,0 1.016,0 0.54187,0 1.15147,0 0.6096,0 1.33209,0 0.94827,0 1.58044,-0.18062 0.65476,-0.18063 1.016,-0.51929 0.36125,-0.36125 0.45156,-0.90312 0.0903,-0.54186 -0.0452,-1.24178 -0.22577,-1.24177 -0.92568,-2.12231 -0.67734,-0.90311 -1.71592,-1.39982 -1.03858,-0.49671 -2.28036,-0.49671 -1.55786,0 -2.79964,0.74506 -1.24178,0.72249 -1.96427,2.05458 -0.72249,1.30952 -0.72249,3.07058 0,1.82881 0.76764,3.13832 0.76765,1.30951 2.05458,2.00942 1.28694,0.69991 2.86738,0.69991 0.63218,0 1.30952,-0.13546 0.69991,-0.11289 1.39982,-0.36125 0.69991,-0.27093 1.39982,-0.67733 0.49672,-0.27093 0.58703,-0.67733 0.11289,-0.40641 -0.0903,-0.74507 -0.2032,-0.36125 -0.6096,-0.49671 -0.38383,-0.13547 -0.88054,0.15804 -0.54187,0.29351 -1.08373,0.49671 -0.51929,0.2032 -1.03858,0.31609 -0.51929,0.0903 -0.99343,0.0903 -1.06115,0 -1.89653,-0.42898 -0.8128,-0.45155 -1.28694,-1.30951 -0.47413,-0.85795 -0.47413,-2.07716 0,-1.15146 0.42898,-2.00942 0.45156,-0.88053 1.2192,-1.35467 0.79022,-0.47413 1.80622,-0.47413 0.76765,0 1.37725,0.29351 0.6096,0.27093 0.99342,0.8128 0.4064,0.51929 0.56445,1.24178 0.0452,0.22578 -0.0226,0.31609 -0.0452,0.0903 -0.18062,0.13547 -0.11289,0.0226 -0.33867,0.0226 -0.2032,-0.0226 -0.47413,-0.0226 -0.74507,0 -1.53529,0 -0.76765,0 -1.51272,0 -0.74506,0 -1.39982,0 z"
       id="text20"
       aria-label="PhoneZone" /></g></svg>
