<?xml version="1.0" encoding="UTF-8" standalone="no"?>
<svg
   viewBox="0 0 6 6"
   width="48"
   height="48"
   version="1.1"
   id="svg4"
   sodipodi:docname="search-icon.svg"
   inkscape:version="1.2.2 (b0a8486541, 2022-12-01)"
   xmlns:inkscape="http://www.inkscape.org/namespaces/inkscape"
   xmlns:sodipodi="http://sodipodi.sourceforge.net/DTD/sodipodi-0.dtd"
   xmlns="http://www.w3.org/2000/svg"
   xmlns:svg="http://www.w3.org/2000/svg">
  <defs
     id="defs8" />
  <sodipodi:namedview
     id="namedview6"
     pagecolor="#ffffff"
     bordercolor="#666666"
     borderopacity="1.0"
     inkscape:showpageshadow="2"
     inkscape:pageopacity="0.0"
     inkscape:pagecheckerboard="0"
     inkscape:deskcolor="#d1d1d1"
     showgrid="false"
     inkscape:zoom="7.375"
     inkscape:cx="33.016949"
     inkscape:cy="44.338983"
     inkscape:window-width="1920"
     inkscape:window-height="1048"
     inkscape:window-x="1920"
     inkscape:window-y="0"
     inkscape:window-maximized="1"
     inkscape:current-layer="svg4" />
  <path
     d="m 2.6727545,1.5282893 c 0.6307971,0 1.1444652,0.5136681 1.1444652,1.1444652 0,0.2740457 -0.096117,0.5252916 -0.2575047,0.7224436 L 4.4717108,4.3071939 4.3071939,4.4717107 3.3951982,3.5597151 c -0.197152,0.1613873 -0.448398,0.2575045 -0.7224437,0.2575045 -0.630797,0 -1.1444653,-0.5136681 -1.1444653,-1.1444651 0,-0.6307971 0.5136683,-1.1444652 1.1444653,-1.1444652 z m 0,0.228893 c -0.5069624,0 -0.9155723,0.4086099 -0.9155723,0.9155722 0,0.5069623 0.4086099,0.9155723 0.9155723,0.9155723 0.5069622,0 0.9155721,-0.40861 0.9155721,-0.9155723 0,-0.5069623 -0.4086099,-0.9155722 -0.9155721,-0.9155722 z"
     id="path2"
     style="fill:#ffffff;stroke-width:0.114447" />
</svg>
